<?xml version="1.0" standalone="no"?>
<!DOCTYPE svg PUBLIC "-//W3C//DTD SVG 20010904//EN"
 "http://www.w3.org/TR/2001/REC-SVG-20010904/DTD/svg10.dtd">
<svg version="1.0" xmlns="http://www.w3.org/2000/svg"
 width="2500.000000pt" height="1250.000000pt" viewBox="0 0 2500.000000 1250.000000"
 preserveAspectRatio="xMidYMid meet">

<g transform="translate(0.000000,1250.000000) scale(0.100000,-0.100000)"
fill="#000000" stroke="none">
<path d="M0 6250 l0 -6250 7269 0 c5806 0 7271 3 7275 13 5 9 7 9 12 0 7 -15
54 -17 54 -3 0 6 -10 10 -21 10 -12 0 -41 19 -65 44 -36 35 -44 50 -44 80 0
32 3 36 25 36 23 0 25 4 25 40 0 22 -5 40 -10 40 -6 0 -3 16 6 37 12 30 14 56
9 120 -6 79 -8 83 -31 83 -15 0 -24 6 -24 15 0 13 21 15 128 15 146 0 142 -2
186 86 21 42 26 66 26 128 0 44 -4 76 -10 76 -6 0 -10 -33 -10 -80 0 -53 -4
-80 -11 -80 -8 0 -10 18 -5 61 3 34 6 88 6 120 l0 59 64 0 c48 0 65 4 70 15 8
22 116 22 116 0 0 -11 11 -15 39 -15 22 0 42 4 45 9 3 5 22 12 41 15 19 4 35
12 35 17 0 15 26 39 43 39 8 0 17 6 20 14 3 7 26 22 51 32 42 17 60 34 37 34
-5 0 -11 20 -13 45 -2 31 1 45 9 45 8 0 13 13 13 30 0 20 -5 30 -15 30 -18 0
-20 16 -3 26 6 4 14 2 16 -4 2 -7 21 -12 43 -12 35 0 39 -3 39 -24 0 -44 85
-72 120 -41 10 9 45 21 79 28 49 10 65 18 74 37 9 18 28 29 67 39 78 21 181
121 125 121 -21 0 -22 215 -1 265 14 32 19 35 55 35 39 0 41 -2 41 -30 0 -28
2 -30 40 -30 40 0 40 0 40 39 0 23 -5 41 -12 44 -10 3 -10 8 2 21 9 12 13 37
12 77 l-3 59 41 0 40 0 0 -40 c0 -22 4 -40 8 -40 5 0 17 -18 28 -40 10 -22 25
-40 32 -40 7 0 12 -15 12 -40 l0 -40 55 0 55 0 -2 73 c-3 114 32 165 94 136
30 -15 34 -15 51 1 14 13 17 34 17 103 0 51 4 87 10 87 6 0 10 18 10 40 0 29
4 40 15 40 8 0 15 -4 15 -9 0 -12 59 -71 71 -71 5 0 9 -5 9 -11 0 -5 5 -7 11
-3 8 5 8 9 -1 14 -7 4 -9 16 -5 29 5 16 14 21 41 21 30 0 34 -3 34 -25 0 -15
6 -25 14 -25 9 0 17 20 24 59 10 54 9 64 -11 103 -18 37 -22 40 -25 21 -5 -33
-25 -28 -46 12 -10 19 -23 32 -27 29 -5 -3 -11 8 -15 23 -9 36 -21 43 -64 37
-52 -7 -66 10 -73 89 l-6 67 28 0 c25 0 30 -5 35 -34 7 -37 36 -52 67 -36 14
8 16 18 12 52 -3 24 -10 48 -15 55 -6 7 -5 19 2 32 11 22 30 28 30 11 0 -5 16
-10 35 -10 24 0 35 -5 35 -15 0 -22 17 -18 34 7 18 25 21 55 6 60 -5 2 -6 17
-1 38 4 20 4 44 0 55 -4 11 -8 33 -8 48 -2 76 -102 171 -201 192 -78 16 -98
33 -111 92 -10 45 -16 54 -31 50 -10 -3 -15 -1 -12 5 3 5 -4 20 -16 33 -18 19
-21 33 -19 81 3 51 0 58 -19 65 -13 5 -22 4 -22 -2 0 -6 -6 -6 -19 0 -15 8
-19 26 -24 98 -3 60 -15 118 -36 181 -36 109 -35 102 -16 102 8 0 15 5 15 10
0 6 -16 10 -36 10 -27 0 -43 7 -62 27 -23 25 -24 31 -18 102 9 93 15 123 27
115 5 -3 9 3 9 12 0 10 3 14 7 11 3 -4 7 -36 9 -71 4 -81 20 -143 40 -154 9
-5 21 -20 27 -33 9 -17 22 -25 45 -27 17 -2 32 -7 32 -13 0 -5 18 -9 40 -9 22
0 40 5 40 10 0 6 11 10 24 10 14 0 26 7 30 17 9 28 28 55 68 96 30 31 43 37
77 37 32 0 41 -4 41 -17 1 -11 7 -5 15 14 9 20 23 35 40 39 22 5 26 11 23 37
-2 25 -12 35 -48 54 -38 21 -47 31 -61 77 -9 29 -20 87 -24 129 -8 88 -25 103
-25 25 -1 -67 -15 -45 -24 36 -4 33 -10 64 -15 70 -20 25 -22 75 -5 107 13 25
14 37 5 51 -6 10 -11 24 -11 32 0 8 -6 21 -12 28 -7 7 -30 39 -52 71 -32 47
-43 57 -67 57 -18 0 -29 5 -29 14 0 7 -7 19 -15 26 -13 10 -15 9 -15 -9 0 -42
-34 -15 -65 52 -9 20 -23 37 -31 37 -8 0 -20 16 -28 35 -8 19 -21 35 -28 35
-26 0 -107 46 -128 73 -12 15 -28 27 -37 27 -15 0 -74 29 -83 42 -3 4 -21 14
-40 21 -45 19 -80 7 -80 -26 0 -32 20 -87 31 -87 5 0 9 -6 9 -14 0 -8 12 -17
26 -20 20 -5 25 -12 21 -26 -3 -11 -2 -20 3 -20 4 0 2 -18 -3 -40 -6 -22 -15
-40 -19 -40 -14 0 -9 -38 7 -54 19 -19 65 -115 65 -137 0 -8 -4 -19 -9 -25 -6
-5 -4 -30 5 -64 8 -30 18 -97 23 -148 5 -62 14 -98 25 -110 9 -10 16 -29 16
-42 0 -13 7 -32 17 -42 14 -16 14 -18 0 -18 -8 0 -17 6 -20 13 -3 9 -13 8 -40
-5 -43 -20 -45 -28 -16 -67 25 -34 22 -66 -6 -66 -12 0 -25 11 -33 30 -22 51
-28 58 -66 89 -31 26 -40 28 -56 18 -11 -7 -32 -12 -46 -12 -20 0 -25 4 -20
16 17 45 18 64 2 64 -9 0 -16 -6 -16 -14 0 -11 -20 -26 -36 -26 -2 0 -20 16
-41 36 -49 48 -80 67 -97 61 -7 -3 -30 12 -52 34 -49 50 -70 51 -77 3 -8 -46
16 -97 41 -90 9 2 31 7 47 11 30 6 31 5 32 -37 1 -24 7 -44 13 -46 6 -2 56
-49 110 -103 71 -71 100 -107 100 -124 0 -13 6 -25 13 -28 6 -2 -7 -10 -30
-16 -35 -10 -43 -16 -43 -36 0 -14 7 -25 18 -27 15 -3 14 -6 -6 -16 -31 -18
-42 -8 -35 33 3 18 2 46 -1 61 -6 21 -11 25 -31 21 -16 -3 -25 0 -25 9 0 15
-73 41 -77 27 -2 -6 -22 -6 -54 1 -41 8 -51 14 -56 36 -3 14 -15 35 -26 48
-19 20 -30 22 -121 22 -85 0 -105 4 -126 20 -14 11 -31 20 -38 20 -7 0 -19 15
-27 33 -14 33 -14 33 -115 45 -83 10 -107 17 -136 39 -31 23 -49 27 -142 35
-59 4 -114 6 -123 3 -9 -3 -29 -23 -44 -45 l-27 -39 -44 25 c-40 24 -46 25
-80 12 -30 -10 -38 -10 -41 0 -3 6 -15 12 -27 12 -13 0 -26 3 -29 7 -4 3 -30
8 -57 9 -35 2 -50 -1 -50 -10 0 -16 -89 -27 -151 -19 -34 5 -39 8 -24 14 15 5
8 8 -22 8 -32 1 -43 -3 -43 -14 0 -8 -6 -13 -12 -11 -50 16 -68 16 -68 0 0
-13 -12 -15 -79 -13 -87 4 -108 -5 -113 -49 -3 -25 -7 -27 -62 -30 -57 -3 -87
-19 -98 -53 -2 -5 -68 -11 -148 -13 -137 -4 -141 -4 -62 6 76 10 82 12 82 34
0 26 -24 37 -78 33 -71 -4 -80 -1 -84 28 -2 22 -10 29 -38 34 -19 4 -36 4 -38
0 -1 -5 -14 -6 -28 -3 -16 3 -24 10 -22 21 2 12 17 17 66 19 39 2 62 -1 62 -8
0 -6 7 -6 20 2 22 14 27 43 9 53 -6 4 -49 9 -97 11 -48 2 -88 8 -90 14 -2 5
-16 10 -31 10 -15 0 -46 9 -69 20 -22 11 -54 20 -70 20 -16 0 -57 3 -91 6 -56
6 -61 9 -61 30 0 15 -6 24 -15 24 -10 0 -15 10 -15 28 0 24 -8 32 -47 52 -26
13 -69 25 -95 28 -41 4 -52 1 -69 -16 -10 -12 -19 -23 -19 -25 0 -10 87 -40
135 -47 l50 -8 -42 -1 c-23 0 -43 -6 -45 -11 -5 -17 -77 13 -96 40 -9 14 -23
25 -31 25 -21 0 -56 66 -40 75 8 5 10 24 6 56 -4 37 0 59 18 99 19 41 24 70
26 150 1 89 12 145 25 132 10 -9 109 49 118 70 6 13 22 23 43 26 18 3 49 19
70 36 23 18 67 38 113 50 151 40 151 40 146 78 l-3 35 47 -7 c40 -6 51 -3 76
17 16 14 45 34 65 46 53 32 73 86 64 174 -6 61 -11 71 -41 98 -19 16 -41 30
-50 30 -8 0 -17 7 -20 15 -4 8 -11 15 -16 15 -6 0 -20 11 -32 24 -11 14 -48
33 -81 44 -58 20 -125 72 -125 98 0 23 -54 74 -78 74 -28 0 -82 27 -82 41 0 5
6 12 14 15 18 7 15 28 -7 52 -9 10 -17 23 -17 28 0 20 -42 44 -75 44 -30 0
-35 -3 -35 -24 0 -24 -6 -27 -78 -46 -37 -9 -112 11 -133 36 -23 28 -29 13
-29 -75 0 -87 -1 -90 -31 -120 -17 -17 -34 -31 -39 -31 -5 0 -27 -18 -50 -40
-23 -22 -36 -40 -29 -40 8 0 5 -9 -9 -22 -20 -21 -34 -23 -132 -26 -86 -3
-110 -7 -110 -18 0 -16 -45 -19 -55 -4 -3 6 -46 10 -96 10 -88 0 -89 0 -89
-25 0 -22 -4 -25 -34 -25 -19 0 -47 5 -63 11 -22 8 -24 12 -13 19 8 6 13 10
10 11 -26 4 -41 9 -82 23 -26 8 -54 13 -61 10 -20 -7 -61 11 -90 40 -13 13
-42 29 -64 35 -21 6 -47 17 -58 25 -11 9 -38 16 -60 16 -45 0 -123 -36 -128
-60 -7 -33 -34 45 -29 87 2 27 -1 47 -9 56 -8 8 -21 24 -29 36 -8 11 -19 21
-25 21 -6 0 -18 15 -26 33 -13 29 -19 33 -79 42 -61 9 -65 12 -68 38 -3 20 -9
27 -25 27 -12 0 -61 3 -109 6 -86 5 -87 5 -105 -22 -10 -15 -18 -32 -18 -38
-1 -6 -5 -23 -9 -38 -9 -31 -40 -38 -50 -12 -8 21 -64 13 -104 -14 -42 -29
-100 -45 -148 -39 -24 2 -44 1 -44 -3 0 -4 -21 -8 -47 -9 -70 -2 -86 -6 -95
-22 -4 -8 -21 -43 -37 -79 -28 -60 -30 -69 -22 -127 13 -88 43 -137 97 -158
23 -9 49 -27 58 -40 8 -13 26 -27 38 -31 12 -4 35 -20 50 -36 15 -16 32 -27
37 -23 6 3 42 -10 80 -30 39 -19 76 -34 83 -33 6 2 16 -15 21 -37 5 -22 20
-53 32 -70 12 -16 36 -58 53 -92 18 -34 36 -64 42 -68 5 -3 10 -27 10 -53 1
-55 22 -91 43 -73 11 9 17 8 27 -4 9 -11 17 -12 31 -4 10 5 20 7 20 4 3 -13 6
-21 14 -39 5 -11 4 -26 -3 -37 -7 -10 -12 -37 -12 -59 0 -33 -3 -40 -20 -40
-11 0 -20 -7 -20 -15 0 -10 -10 -15 -29 -15 -16 0 -37 -7 -45 -16 -9 -8 -38
-17 -68 -19 -29 -1 -81 -6 -115 -10 -55 -7 -63 -6 -63 9 0 12 -10 16 -39 16
-22 0 -41 -5 -43 -12 -3 -8 -28 -5 -89 10 -46 12 -108 22 -136 22 -33 0 -55 5
-63 15 -7 8 -27 15 -44 15 -17 0 -40 7 -50 15 -12 9 -43 14 -91 14 -70 0 -135
17 -149 40 -4 6 -17 11 -30 11 -12 0 -26 4 -32 10 -8 8 -87 14 -231 20 -7 0
-23 10 -37 22 -66 60 -76 66 -96 61 -12 -3 -27 -18 -36 -34 -8 -16 -19 -29
-24 -29 -6 0 -10 -9 -10 -20 0 -11 6 -20 13 -20 8 0 7 -4 -3 -10 -11 -7 -4
-10 28 -10 34 0 42 -4 42 -18 0 -10 13 -23 33 -32 l32 -13 -32 -4 c-25 -3 -33
-9 -33 -24 0 -16 -7 -19 -40 -19 -22 0 -40 5 -40 10 0 13 -77 13 -82 -1 -2 -5
-34 -13 -72 -16 -66 -5 -95 2 -134 31 -8 6 -30 11 -50 12 -59 3 -135 33 -156
61 l-19 25 34 -6 c23 -5 3 8 -56 38 -49 25 -96 45 -105 44 -46 -3 -80 3 -80
15 0 10 -43 18 -160 32 -88 10 -160 22 -160 27 0 4 -54 8 -120 8 -100 0 -120
-2 -120 -15 0 -11 -11 -15 -40 -15 -34 0 -40 3 -40 21 0 21 -3 22 -61 15 -34
-3 -70 -6 -80 -6 -14 0 -19 -7 -19 -30 0 -28 -2 -30 -40 -30 -34 0 -40 -3 -40
-21 0 -18 -5 -20 -51 -17 l-51 3 -1 59 c-1 38 3 61 11 64 7 2 12 -3 12 -12 0
-22 43 -21 63 2 12 13 17 37 17 80 l0 62 80 0 c67 0 80 -3 80 -16 0 -9 5 -14
13 -11 47 20 67 34 67 47 0 8 19 24 43 34 39 18 40 20 17 24 -14 2 -33 11 -43
20 -17 15 -21 15 -49 -1 -17 -10 -51 -17 -79 -17 -47 0 -49 -1 -49 -29 0 -28
-2 -29 -57 -33 -34 -2 -65 1 -76 8 -17 11 -69 4 -122 -16 -11 -5 -34 -13 -51
-19 -17 -7 -68 -11 -115 -9 l-84 3 -3 48 c-3 42 -6 47 -27 47 -21 0 -24 -5
-28 -43 -2 -23 -3 2 -3 57 1 54 2 91 4 82 5 -24 48 -20 76 9 14 14 37 25 51
25 14 0 35 9 46 19 19 17 20 26 14 95 -4 42 -11 76 -16 76 -5 0 -9 36 -9 80 0
48 4 80 10 80 6 0 27 -7 46 -15 34 -14 36 -13 60 10 13 13 24 29 24 35 0 5 8
10 18 10 29 0 42 21 42 71 0 55 -6 59 -118 59 -40 0 -83 5 -94 11 -17 9 -24 8
-34 -6 -8 -11 -19 -15 -33 -10 -35 11 -161 -6 -161 -21 0 -10 -13 -14 -40 -14
l-40 0 0 -65 c0 -62 -1 -65 -23 -65 -29 0 -57 -29 -57 -58 0 -19 -6 -22 -40
-22 l-40 0 0 -80 c0 -47 -4 -80 -10 -80 -5 0 -10 18 -10 40 0 22 -4 40 -10 40
-5 0 -10 -18 -10 -40 0 -22 -4 -40 -10 -40 -5 0 -10 -18 -10 -40 l0 -40 -50 0
c-38 0 -50 -4 -50 -15 0 -12 -16 -15 -80 -15 -79 0 -80 0 -80 -25 0 -14 5 -25
10 -25 6 0 10 -18 10 -40 l0 -40 -170 0 -170 0 0 23 c0 28 -25 53 -60 59 -24
4 -25 2 -21 -39 4 -56 -15 -57 -22 0 -6 49 -29 117 -39 117 -5 0 -8 18 -8 40
0 22 5 40 10 40 7 0 10 20 9 48 -1 26 2 56 8 67 12 22 -4 205 -18 205 -11 0
-60 48 -81 80 l-18 25 0 -52 0 -53 -40 0 c-37 0 -40 2 -40 28 0 16 -8 34 -20
42 -26 18 -25 35 1 54 17 12 21 23 18 63 -5 93 0 133 16 133 20 0 20 66 0 86
-8 9 -15 33 -15 55 0 32 -4 39 -19 39 -40 0 -48 22 -39 101 5 47 4 111 -4 172
-8 69 -8 101 -1 105 6 4 14 39 18 77 5 53 3 82 -10 119 -15 44 -15 52 -2 80 9
17 21 46 27 64 7 17 16 32 21 32 5 0 9 7 9 15 0 8 5 15 10 15 6 0 10 18 10 40
0 23 -5 40 -11 40 -8 0 -8 4 1 15 10 11 5 20 -24 46 -39 34 -44 50 -22 68 8 7
18 25 21 41 4 16 12 28 18 27 6 -1 18 12 27 28 8 17 23 41 33 55 9 13 17 30
17 37 0 7 11 29 25 49 17 25 22 41 16 53 -10 20 -6 74 8 109 7 16 29 35 54 47
47 23 60 58 33 96 -10 15 -12 28 -6 39 11 20 86 53 101 45 17 -11 58 46 65 90
4 27 17 56 35 76 15 17 26 35 24 40 -5 8 33 25 48 21 16 -4 108 105 119 140
11 39 64 79 133 103 21 7 32 19 39 44 6 20 22 41 43 55 18 11 33 28 33 37 0
31 28 96 52 121 98 107 94 95 74 208 -9 54 -10 85 -3 110 6 19 11 76 11 126 1
72 -3 96 -15 110 -17 19 -26 58 -35 150 -5 47 -4 52 18 57 12 4 26 7 31 7 12
0 8 -28 -7 -43 -10 -9 -14 -33 -13 -68 2 -46 5 -54 23 -57 21 -3 54 -62 54
-97 0 -10 16 -33 36 -52 28 -26 39 -31 46 -21 6 10 13 8 28 -11 11 -13 20 -31
20 -41 0 -45 165 -70 191 -28 5 7 8 31 8 53 0 22 -3 34 -6 28 -7 -18 -58 -16
-77 2 -8 8 -22 15 -30 15 -21 0 -21 43 -1 60 13 11 18 10 31 -8 8 -12 24 -22
35 -22 11 0 22 -6 25 -14 3 -8 11 -13 18 -10 7 3 17 -1 23 -8 8 -11 22 -91 26
-155 0 -7 6 -13 14 -13 7 0 13 -4 13 -10 0 -5 18 -10 40 -10 22 0 40 -5 40
-11 0 -18 102 0 125 22 19 19 19 19 -13 31 -17 7 -32 16 -32 20 0 4 -18 8 -40
8 -38 0 -40 2 -40 30 0 34 -6 33 95 14 89 -17 90 -17 103 11 18 38 16 42 -30
94 -58 64 -93 131 -76 143 36 22 116 -10 142 -57 6 -10 16 -25 23 -32 6 -7 14
-21 17 -31 10 -29 44 -42 126 -49 98 -7 103 -10 89 -49 -8 -19 -9 -57 -4 -108
7 -83 11 -89 81 -143 37 -28 28 -36 -29 -23 -67 15 -97 -1 -97 -51 0 -21 5
-39 13 -42 26 -9 -14 -35 -73 -46 -68 -14 -77 -28 -66 -106 6 -39 11 -45 31
-45 30 0 110 -34 121 -52 5 -7 11 -31 14 -53 4 -32 9 -40 25 -40 16 0 21 8 23
36 3 36 4 36 35 29 65 -17 75 -22 87 -46 8 -13 21 -24 31 -24 10 0 21 -5 24
-10 4 -6 11 -8 16 -4 7 4 10 -31 8 -103 -1 -61 2 -117 8 -127 10 -18 11 -18
42 0 28 16 33 17 42 4 11 -17 3 -88 -13 -107 -6 -7 -16 -13 -22 -13 -16 0 -18
-23 -20 -180 -1 -122 1 -139 22 -178 12 -23 22 -55 22 -70 0 -35 33 -88 59
-97 11 -3 23 -17 28 -30 4 -13 29 -45 54 -72 25 -26 51 -58 57 -70 25 -46 274
-183 333 -183 19 0 47 -7 63 -15 15 -8 33 -15 38 -15 5 0 21 -9 35 -20 14 -11
40 -20 57 -20 17 0 76 -11 131 -24 55 -13 122 -27 148 -31 26 -3 62 -12 80
-19 38 -16 439 -11 469 5 11 6 51 16 91 23 l72 12 0 -45 0 -46 65 -13 c133
-27 117 -31 242 52 72 48 121 74 131 70 18 -6 47 41 47 75 0 14 9 23 28 27 47
12 55 23 48 75 -4 26 -12 59 -20 73 -10 19 -11 39 -4 79 7 42 6 62 -7 97 -19
51 -20 107 -2 128 8 11 12 76 12 221 0 175 -3 214 -18 259 -11 29 -16 64 -13
77 5 18 -1 29 -26 49 -29 22 -32 29 -29 70 2 36 -1 46 -13 46 -10 0 -17 15
-22 46 -3 25 -14 53 -24 62 -9 9 -22 26 -28 37 -6 11 -12 15 -12 8 0 -25 -29
0 -45 39 -11 28 -20 38 -31 34 -9 -3 -14 -1 -13 7 4 21 -20 67 -34 67 -21 0
-79 66 -82 94 -4 33 -13 46 -33 46 -22 1 -46 19 -61 48 -7 12 -16 20 -21 17
-12 -8 -79 32 -115 68 -23 23 -40 30 -73 32 -24 1 -47 6 -50 12 -9 14 -67 43
-87 43 -8 0 -25 11 -37 25 -33 38 -116 59 -226 56 -99 -1 -119 3 -104 22 15
18 -4 57 -28 57 -11 0 -34 13 -52 29 l-32 28 -24 -29 -25 -29 22 -20 c12 -11
21 -32 21 -48 0 -26 -5 -30 -77 -54 -96 -31 -236 -46 -249 -26 -5 8 -7 39 -5
70 3 54 1 58 -31 81 -18 14 -47 33 -65 43 -31 18 -33 18 -53 0 -24 -21 -27
-65 -5 -65 8 0 15 -9 15 -20 0 -14 -7 -20 -24 -20 -27 0 -59 31 -38 37 19 7
14 48 -8 68 -11 10 -20 26 -20 35 0 10 -7 23 -15 30 -21 17 -19 30 5 30 11 0
20 -6 20 -14 0 -11 9 -13 38 -9 20 3 39 10 40 15 6 13 29 9 35 -6 5 -13 98
-46 130 -46 9 0 21 15 28 34 11 32 15 34 43 29 17 -4 58 -21 92 -40 72 -39
121 -44 133 -11 13 35 2 56 -35 68 -19 7 -55 27 -79 45 -24 19 -62 43 -84 55
-28 14 -41 27 -41 41 0 11 -16 35 -35 54 -29 30 -31 35 -14 35 11 0 24 -11 31
-25 6 -14 17 -25 25 -25 7 0 13 -4 13 -10 0 -5 7 -10 15 -10 27 0 63 -22 74
-46 6 -13 18 -24 27 -24 10 0 25 -6 33 -14 9 -7 25 -16 37 -20 19 -6 20 -3 17
41 -6 62 -18 83 -48 83 -30 0 -64 45 -47 62 8 8 24 9 56 1 59 -13 72 -5 58 36
-12 34 -13 34 44 36 53 1 88 32 78 69 -3 14 -12 26 -18 26 -7 0 -26 16 -42 35
-16 20 -38 35 -50 35 -27 0 -40 15 -49 58 l-7 32 -65 0 c-55 0 -72 4 -99 25
-18 14 -37 25 -43 25 -10 0 -13 15 -25 104 -6 48 -31 75 -79 86 -42 9 -42 9
-21 -36 18 -38 11 -66 -35 -136 -27 -41 -26 -41 -88 -38 -49 2 -55 -12 -20
-41 12 -10 17 -18 11 -19 -6 0 -17 -18 -24 -40 -7 -22 -19 -40 -25 -40 -29 0
-42 -34 -37 -97 2 -35 8 -63 13 -63 5 0 9 -18 9 -40 0 -22 -4 -40 -9 -40 -5 0
-12 -11 -15 -25 -4 -14 -11 -25 -16 -25 -6 0 -10 -7 -10 -15 0 -8 -9 -15 -20
-15 -17 0 -20 7 -20 40 0 33 3 40 20 40 15 0 20 7 20 25 0 22 -4 25 -39 25
-25 0 -41 -5 -45 -15 -3 -9 -19 -15 -41 -15 l-35 0 0 48 c-1 56 -28 97 -59 87
-21 -6 -34 15 -25 40 5 12 -2 15 -30 15 -20 0 -38 -1 -40 -2 -10 -7 -49 40
-66 79 -19 44 -65 92 -87 93 -7 0 -13 3 -13 8 0 4 -24 8 -54 10 -43 2 -57 -1
-64 -14 -15 -26 12 -74 59 -108 43 -30 63 -67 54 -98 -4 -10 -3 -17 2 -16 4 1
23 -6 41 -15 26 -14 31 -22 26 -41 -4 -15 -1 -25 9 -29 11 -4 13 0 10 13 -5
17 -2 17 38 7 34 -8 39 -12 23 -18 -18 -6 -18 -7 -1 -14 12 -5 17 -19 17 -51
0 -24 4 -44 9 -44 5 0 23 -12 40 -26 17 -14 31 -21 31 -15 0 15 63 14 78 -1 7
-7 11 -30 11 -53 -1 -22 -4 -30 -6 -17 -5 26 -3 25 -39 11 -43 -16 -99 13
-121 62 -19 42 -28 44 -115 40 -34 -2 -48 1 -48 10 0 10 -3 10 -12 1 -10 -10
-10 -15 -1 -20 6 -4 13 -23 15 -42 2 -25 10 -38 28 -47 14 -7 32 -21 40 -31 9
-10 29 -25 45 -33 16 -8 31 -22 33 -32 3 -14 -4 -17 -32 -17 -20 0 -36 5 -36
10 0 13 -57 70 -70 70 -6 0 -10 6 -10 14 0 9 -18 16 -55 21 -58 7 -75 2 -75
-20 0 -7 -8 -16 -17 -18 -10 -3 1 -5 23 -6 43 -1 55 -15 46 -53 -3 -16 -16
-18 -97 -18 -52 0 -97 4 -100 10 -7 11 -88 50 -104 50 -6 0 -11 5 -11 10 0 6
-6 10 -14 10 -18 0 -76 32 -76 43 0 4 -6 7 -12 7 -7 0 -25 7 -40 14 -18 9 -28
11 -28 4 0 -6 -15 1 -32 14 -18 14 -43 28 -56 32 -12 4 -27 16 -32 27 -6 10
-21 19 -33 19 -33 1 -70 36 -64 61 4 17 2 20 -12 16 -14 -3 -17 0 -14 14 8 30
24 36 113 41 77 5 90 3 140 -21 43 -21 59 -35 75 -67 20 -40 78 -104 94 -104
5 0 31 -22 59 -49 46 -45 51 -48 66 -33 15 15 16 15 16 -1 0 -9 7 -17 15 -17
11 0 15 12 15 50 0 45 3 50 25 56 14 3 25 12 25 20 0 18 76 19 83 2 2 -7 8
-10 12 -6 4 4 2 14 -5 23 -14 17 -90 21 -90 4 0 -6 -8 -9 -17 -7 -14 3 -17 11
-15 42 5 50 -11 86 -53 116 -18 14 -38 35 -44 48 -6 12 -15 22 -21 22 -5 0
-10 7 -10 16 0 9 -22 25 -52 39 -95 43 -174 139 -84 101 20 -8 52 -12 86 -8
50 5 54 3 80 -27 15 -17 32 -31 38 -31 6 0 12 -6 15 -12 8 -24 14 -3 9 35 -4
32 -10 41 -33 49 -16 5 -29 14 -29 19 0 5 -7 9 -15 9 -8 0 -15 5 -15 10 0 6
14 10 31 10 63 0 185 45 153 57 -6 2 -9 14 -7 27 3 13 0 27 -6 30 -6 4 -11 20
-11 36 0 34 -13 40 -96 40 -50 0 -64 3 -64 15 0 8 -4 15 -10 15 -5 0 -10 -18
-10 -39 0 -22 -5 -41 -12 -43 -11 -4 -15 -46 -7 -78 7 -26 -61 -26 -81 0 -14
18 -29 22 -110 26 -52 3 -111 11 -130 17 -19 6 -41 12 -47 13 -30 5 -44 34
-42 86 4 64 13 78 50 78 15 0 31 5 34 10 3 6 17 10 31 10 14 0 35 7 48 16 14
8 80 22 153 32 108 14 132 20 153 40 23 22 30 23 95 17 129 -13 175 -3 175 37
0 37 -23 98 -37 98 -7 0 -13 5 -13 10 0 6 -9 10 -20 10 -11 0 -20 5 -20 10 0
6 12 10 28 10 15 0 42 2 60 6 20 4 32 2 32 -5 0 -6 21 -10 55 -9 54 2 72 11
37 20 -16 5 -18 14 -14 69 4 69 18 89 59 89 13 0 23 5 23 11 0 7 20 10 57 7
42 -2 58 0 58 10 0 12 22 32 38 32 4 0 7 -7 7 -15 0 -8 5 -15 10 -15 6 0 10 5
10 10 0 18 40 10 52 -10 9 -14 24 -20 50 -20 21 0 38 5 38 10 0 6 -5 10 -12
10 -6 0 0 13 15 28 15 15 27 33 27 40 0 19 31 14 95 -18 75 -37 87 -37 125 0
17 17 35 30 40 30 4 0 14 14 22 30 11 26 18 30 50 30 21 0 38 4 38 10 0 5 13
16 28 24 38 20 48 48 48 133 -1 59 -5 77 -25 103 l-23 32 21 22 c14 13 24 17
29 10 4 -5 22 -16 40 -24 35 -14 32 -26 -8 -32 -20 -2 -26 -9 -28 -35 -3 -32
-2 -33 32 -33 19 0 41 -3 50 -6 12 -5 16 0 16 21 0 31 24 59 45 51 13 -5 45
-67 45 -87 0 -5 -7 -9 -15 -9 -8 0 -15 5 -15 10 0 15 -49 12 -66 -4 -8 -8 -14
-21 -14 -30 0 -21 98 -15 115 7 7 10 21 17 32 17 20 0 66 -43 76 -73 6 -16 9
-16 43 -2 50 21 76 19 104 -7 13 -12 29 -23 34 -24 6 -1 19 -5 28 -9 13 -5 19
0 23 22 4 15 12 42 18 58 7 17 12 34 12 39 0 5 21 15 48 22 52 13 126 72 140
111 10 26 47 32 47 8 0 -23 28 -18 41 8 7 12 23 37 37 54 24 33 24 33 53 16
29 -18 37 -37 19 -48 -5 -3 -10 -20 -10 -36 0 -26 3 -30 22 -27 14 2 24 11 26
23 8 53 13 63 36 67 23 5 46 -17 46 -44 0 -7 16 -31 35 -53 19 -22 35 -43 35
-47 0 -18 28 -6 38 17 11 23 36 32 67 25 6 -1 19 -4 30 -5 11 -2 32 -8 47 -14
15 -6 34 -8 42 -5 7 3 16 -2 19 -10 11 -29 27 -16 54 44 14 33 30 60 34 60 17
0 27 -37 26 -97 0 -65 18 -103 50 -103 8 0 25 -11 38 -24 27 -27 35 -18 35 37
0 50 12 60 57 52 40 -6 61 5 67 37 6 28 25 64 39 77 13 10 20 9 40 -4 14 -9
28 -23 31 -31 5 -13 19 -15 74 -10 37 2 72 5 77 5 6 1 42 -4 82 -11 54 -10 81
-21 112 -46 22 -17 51 -33 64 -34 27 -2 97 28 97 43 0 6 5 7 11 4 5 -4 9 -28
8 -53 -6 -96 -1 -121 24 -127 36 -8 81 9 94 37 12 23 20 26 95 32 45 4 130 4
189 0 103 -6 109 -6 154 20 47 26 105 35 105 16 0 -5 16 -10 35 -10 29 0 37
-5 45 -26 13 -33 13 -37 -2 -28 -7 4 1 -8 18 -27 18 -19 36 -44 42 -55 15 -28
56 -21 70 12 23 49 64 84 98 84 18 0 35 -4 38 -9 7 -10 56 -21 56 -12 0 4 18
12 40 18 37 9 42 8 55 -11 8 -11 15 -27 15 -35 0 -24 70 -5 104 28 24 23 35
28 49 20 9 -6 17 -16 17 -24 0 -32 99 -237 117 -242 6 -3 25 11 42 29 26 29
36 33 65 30 28 -3 39 2 63 27 25 25 36 30 72 28 33 -1 47 3 57 18 32 45 45 55
70 55 14 0 38 9 52 21 l26 20 18 -23 c10 -13 18 -33 18 -44 0 -12 7 -28 16
-35 15 -12 18 -11 28 5 6 10 23 37 38 60 15 22 28 48 28 57 0 27 41 47 71 36
24 -9 27 -16 32 -75 4 -36 11 -70 17 -76 24 -24 2 -115 -35 -146 -7 -6 -17
-25 -20 -41 -4 -16 -11 -29 -16 -29 -5 0 -9 -12 -9 -28 0 -15 -5 -43 -10 -62
-12 -40 -5 -84 17 -105 8 -9 16 -21 17 -28 1 -7 11 -28 23 -47 12 -19 24 -52
28 -72 5 -24 22 -53 49 -81 61 -65 67 -74 73 -113 6 -36 31 -58 55 -49 16 6
43 -44 53 -98 7 -35 56 -93 85 -98 27 -6 115 23 133 43 11 13 17 37 17 65 0
36 3 44 16 41 17 -3 28 -18 38 -51 6 -18 7 -17 32 2 15 11 31 18 36 15 11 -7
8 -27 -21 -139 -24 -91 -25 -109 -11 -136 8 -14 14 -16 23 -9 7 6 20 16 29 23
10 7 35 62 56 122 26 75 44 111 55 113 25 5 23 -92 -2 -135 -11 -17 -23 -47
-26 -65 -4 -20 -21 -48 -42 -68 -19 -19 -40 -46 -45 -60 -20 -49 -6 -120 23
-120 5 0 21 19 36 42 15 24 28 45 30 47 2 2 15 -1 29 -8 22 -10 31 -9 50 4 27
17 31 47 10 86 -11 22 -11 30 1 50 8 13 12 16 9 6 -6 -17 5 -44 32 -77 10 -12
23 -15 54 -11 35 5 44 12 64 46 28 51 54 55 88 15 39 -47 36 -54 -26 -50 -14
1 -30 -5 -34 -12 -11 -17 -35 -114 -37 -153 -2 -28 0 -30 39 -33 35 -3 42 0
47 17 9 34 30 26 24 -9 -11 -51 -1 -60 64 -60 48 0 61 3 65 18 22 72 53 92 50
31 -1 -24 -8 -45 -14 -47 -17 -5 -42 -56 -42 -83 0 -24 26 -48 51 -49 9 0 25
8 37 18 14 12 31 17 52 14 25 -4 30 -9 30 -33 0 -30 38 -79 61 -79 8 0 26 14
40 31 20 24 30 30 47 25 12 -4 22 -14 22 -22 0 -17 -79 -116 -121 -151 -16
-14 -29 -35 -29 -48 0 -13 -10 -29 -25 -39 -33 -22 -23 -46 20 -46 25 0 35 -5
40 -20 8 -24 -15 -80 -31 -80 -17 0 -24 -26 -11 -39 6 -6 17 -11 25 -11 8 0
20 -8 27 -17 11 -14 16 -15 44 -4 24 10 41 11 74 3 23 -6 62 -14 86 -17 80
-11 98 -36 67 -97 -16 -31 -12 -38 21 -38 13 0 36 -8 50 -17 18 -12 28 -14 30
-6 5 14 42 5 66 -15 28 -24 20 -35 -20 -28 -45 8 -39 8 -255 -3 -29 -1 -39
-25 -15 -35 39 -16 -106 -54 -215 -55 -38 -1 -82 -11 -131 -30 -40 -16 -101
-35 -135 -41 -34 -7 -67 -19 -73 -26 -7 -8 -30 -14 -55 -14 -24 0 -44 -4 -44
-10 0 -17 -42 -32 -92 -34 -27 -1 -53 -7 -56 -12 -4 -5 -16 -11 -27 -13 -31
-5 -56 -21 -50 -31 3 -5 -12 -17 -32 -26 -43 -20 -53 -32 -46 -50 6 -17 -8
-23 -32 -13 -17 6 -17 8 -2 8 22 1 21 10 -2 40 l-18 24 -31 -22 c-17 -12 -34
-30 -37 -41 -4 -13 -17 -20 -43 -22 -32 -3 -39 -8 -54 -40 -10 -20 -26 -39
-37 -43 -20 -6 -71 -99 -71 -129 0 -9 -3 -16 -8 -16 -4 0 -22 -13 -40 -30 -27
-25 -31 -33 -22 -49 16 -31 12 -51 -12 -61 -40 -16 -55 -34 -62 -73 -4 -23
-18 -48 -36 -63 -27 -25 -41 -63 -90 -260 -5 -23 -17 -47 -25 -54 -19 -16 -19
-40 0 -40 22 0 6 -29 -19 -36 -18 -4 -25 -19 -39 -78 -20 -85 -21 -130 -6
-192 6 -25 9 -47 6 -50 -3 -4 -20 4 -37 16 -38 27 -54 14 -38 -32 7 -21 7 -37
-1 -54 -14 -31 -14 -69 -1 -95 17 -31 50 -7 50 36 0 46 17 53 46 19 22 -25 24
-36 20 -85 -6 -59 4 -79 36 -79 10 0 18 -6 19 -12 0 -7 4 -4 8 7 7 18 8 17 14
-7 4 -14 16 -28 27 -31 11 -3 20 -12 20 -20 0 -8 19 -35 43 -59 23 -25 52 -60
65 -77 25 -33 43 -38 64 -18 7 7 29 19 48 27 19 7 42 19 51 27 23 19 25 17 43
-27 16 -41 32 -48 67 -30 12 7 19 21 19 41 0 44 17 58 60 47 19 -5 55 -14 80
-20 25 -6 55 -18 68 -26 14 -9 60 -19 111 -23 47 -3 145 -15 216 -24 100 -14
206 -18 455 -19 315 -1 326 0 360 20 19 12 53 25 75 29 78 13 210 66 241 96
17 16 55 39 85 50 59 22 89 45 89 65 0 8 11 21 25 30 23 15 31 15 65 4 45 -15
83 -50 62 -57 -17 -6 -15 -62 3 -97 13 -24 14 -35 4 -58 -7 -17 -9 -47 -5 -74
4 -36 2 -52 -12 -73 -30 -43 -31 -55 -3 -87 51 -62 157 -96 168 -55 12 47 63
25 97 -41 14 -29 29 -41 67 -54 27 -10 49 -21 49 -25 0 -15 -28 -27 -71 -32
-49 -5 -89 -22 -89 -37 0 -5 14 -16 30 -25 16 -9 30 -13 30 -9 0 4 6 2 13 -4
7 -6 32 -14 55 -18 27 -4 55 -18 75 -37 64 -60 77 -64 196 -71 46 -3 77 -10
83 -18 5 -9 10 -10 16 -2 22 32 62 19 62 -21 0 -30 -7 -34 -43 -24 -25 7 -35
5 -50 -9 -17 -18 -17 -19 1 -36 34 -30 241 -43 257 -16 9 15 -7 39 -28 43 -21
3 -20 4 6 17 16 8 35 27 43 42 9 18 23 28 36 28 12 0 41 9 65 21 39 19 48 20
93 9 41 -10 51 -17 56 -39 4 -14 17 -45 30 -69 13 -23 24 -54 24 -68 0 -16 15
-39 41 -65 29 -28 39 -45 34 -57 -16 -38 -17 -54 -5 -62 17 -10 17 -69 1 -79
-9 -6 -8 -11 3 -20 22 -19 49 -9 57 19 4 14 7 18 8 10 1 -8 12 -37 26 -64 14
-27 25 -66 25 -86 0 -65 11 -97 46 -135 25 -28 38 -35 54 -30 26 8 80 -15 80
-35 0 -9 4 -20 10 -26 6 -6 6 -15 0 -24 -8 -12 -10 -12 -10 -1 0 9 -7 11 -21
8 -12 -3 -31 -2 -44 3 -28 11 -44 -3 -38 -34 4 -20 13 -24 50 -29 52 -6 83 13
83 50 0 30 20 40 27 14 3 -12 9 -21 14 -21 5 0 9 -6 9 -13 0 -8 9 -22 20 -32
23 -21 26 -45 8 -64 -11 -10 -8 -16 12 -31 14 -11 30 -18 37 -15 7 2 10 -1 8
-8 -3 -7 5 -30 18 -52 21 -37 26 -40 74 -45 40 -4 60 -13 83 -35 16 -16 30
-34 30 -41 0 -22 23 -64 31 -58 5 3 9 0 9 -6 0 -6 14 -16 31 -22 39 -13 45
-30 41 -112 -4 -62 -5 -66 -39 -86 -19 -11 -38 -18 -43 -15 -5 3 -25 -10 -44
-30 -21 -21 -45 -35 -60 -35 -35 0 -40 -15 -9 -29 18 -8 29 -9 37 -1 5 5 24
10 42 10 18 0 34 4 36 9 2 6 29 4 66 -4 36 -7 90 -11 123 -8 62 6 75 19 68 69
-1 11 1 36 6 58 7 37 9 38 42 33 44 -8 93 2 93 18 0 6 16 44 35 84 19 39 35
75 35 80 0 5 7 11 14 14 8 3 20 24 26 47 6 22 20 46 30 53 11 6 20 18 20 25 0
7 7 23 15 36 12 19 15 45 11 131 -6 124 3 151 59 183 29 18 35 27 35 55 0 19
-7 48 -16 65 -19 39 -45 262 -32 279 13 16 -1 63 -29 101 -19 25 -23 40 -18
60 22 87 15 147 -27 244 -19 44 -20 52 -8 105 12 55 12 57 -11 75 -60 46 -68
56 -62 76 3 12 16 28 29 37 13 8 24 23 24 33 -1 25 -36 63 -67 71 -18 5 -29
16 -34 34 -4 14 -17 38 -28 53 -27 34 -26 44 3 44 36 0 50 23 42 76 -10 76
-18 84 -88 84 l-60 0 7 75 c7 83 -4 117 -45 130 -23 7 -27 35 -5 35 8 0 15 6
15 13 0 15 54 67 69 67 5 0 14 7 21 15 16 19 60 19 86 0 21 -16 84 -20 84 -5
0 5 19 19 42 31 35 18 52 20 107 15 36 -3 98 -6 136 -6 62 1 72 4 90 25 13 16
31 25 50 25 15 0 36 7 46 16 16 15 128 43 189 49 14 1 43 10 64 19 30 14 45
15 63 7 13 -6 23 -15 23 -21 0 -19 31 -10 55 16 32 34 85 40 166 19 35 -9 99
-18 143 -20 43 -2 81 -7 85 -13 3 -5 45 -10 94 -10 88 0 117 -10 117 -38 0
-10 13 -14 40 -14 29 0 40 -4 40 -15 0 -8 5 -15 11 -15 11 0 69 -54 69 -64 0
-18 91 -95 116 -98 18 -2 33 -13 44 -33 9 -16 26 -34 38 -40 18 -8 22 -18 22
-52 0 -24 -5 -43 -13 -46 -9 -4 -9 -7 1 -18 11 -12 14 -12 22 1 8 13 10 12 10
-2 0 -14 9 -18 39 -18 22 0 42 6 44 13 4 8 14 3 31 -15 14 -16 29 -28 33 -28
16 0 36 -65 34 -111 -1 -37 3 -52 21 -72 22 -23 27 -24 98 -17 113 10 199 1
211 -21 6 -13 6 -19 -1 -19 -5 0 -10 -18 -10 -41 0 -37 -2 -40 -22 -35 -13 3
-17 3 -10 0 14 -7 16 -44 2 -44 -5 0 -10 5 -10 10 0 6 -9 10 -20 10 -11 0 -20
-3 -20 -6 0 -11 29 -34 44 -34 9 0 16 -4 16 -10 0 -6 -9 -6 -26 0 -47 18 -54
14 -54 -35 l0 -45 40 0 c36 0 40 3 40 25 0 21 5 25 30 25 20 0 30 -5 30 -15 0
-8 5 -15 10 -15 6 0 10 -17 10 -37 0 -20 7 -45 17 -55 15 -17 15 -18 0 -18
-26 0 -21 -10 23 -51 22 -21 40 -42 40 -48 0 -14 27 -19 145 -26 93 -5 104 -3
160 21 50 22 80 27 175 31 113 5 115 5 138 -20 20 -21 22 -29 12 -47 -9 -16
-8 -28 1 -49 12 -26 16 -28 43 -20 41 12 93 11 101 -1 11 -18 -6 -50 -29 -56
-25 -6 -56 -51 -56 -82 0 -11 7 -25 15 -32 8 -7 15 -23 15 -35 0 -19 7 -24 46
-30 64 -9 74 -14 74 -36 0 -10 9 -24 20 -31 20 -13 28 -48 11 -48 -14 0 -26
-109 -13 -122 6 -6 34 -12 64 -14 107 -8 133 -13 145 -30 19 -26 16 -41 -12
-61 -14 -10 -36 -26 -48 -35 l-22 -18 25 -21 c14 -12 26 -16 28 -10 2 6 16 8
31 5 18 -4 33 0 44 10 8 9 25 16 36 16 16 0 21 -6 21 -28 0 -33 -22 -56 -62
-66 -32 -7 -35 -22 -10 -66 13 -25 14 -34 4 -37 -14 -5 -42 -66 -42 -90 0 -10
7 -14 20 -10 11 3 22 2 24 -1 2 -4 27 -5 55 -4 47 4 50 6 45 27 -3 14 0 24 9
28 22 8 39 -8 41 -39 1 -16 6 -39 10 -51 6 -17 3 -23 -8 -23 -9 0 -16 -5 -16
-11 0 -8 -5 -7 -16 2 -12 10 -17 10 -23 0 -5 -8 -29 -11 -70 -10 -43 2 -66 -2
-77 -12 -12 -13 -10 -19 19 -47 35 -34 113 -62 175 -62 17 0 32 -4 32 -9 0 -9
38 -6 70 5 14 5 82 -24 88 -38 2 -5 21 -8 43 -8 28 0 39 4 39 15 0 8 4 15 10
15 5 0 7 -13 4 -30 -8 -40 13 -120 38 -147 21 -22 21 -23 3 -43 -10 -11 -13
-20 -7 -20 6 0 9 -7 6 -15 -4 -8 -12 -15 -18 -15 -7 0 -22 -28 -33 -62 l-22
-61 32 -29 c20 -18 40 -27 54 -25 28 5 47 -7 40 -25 -8 -22 -65 -21 -63 0 1
11 -8 18 -21 20 -13 2 -23 -2 -23 -9 0 -7 -7 -20 -15 -30 -16 -17 -12 -69 6
-69 5 0 9 -7 9 -15 0 -34 49 -44 205 -38 83 2 175 5 205 6 60 2 97 -17 76 -39
-8 -8 -15 -8 -28 0 -19 12 -48 0 -56 -22 -5 -16 42 -26 66 -13 25 13 122 2
129 -15 5 -15 -26 -54 -44 -54 -8 0 -13 -12 -13 -29 0 -35 -29 -58 -105 -86
-66 -24 -77 -33 -73 -64 2 -18 9 -26 23 -27 11 0 29 -3 40 -6 11 -4 45 -12 75
-18 73 -14 88 -24 71 -44 -16 -19 -8 -32 31 -52 27 -14 37 -14 72 -3 85 26
157 -1 138 -52 -6 -15 -5 -32 1 -46 11 -24 27 -31 27 -12 0 6 12 8 29 6 46 -8
52 -14 39 -42 -12 -26 -28 -34 -28 -14 0 8 -4 8 -14 0 -11 -10 -17 -8 -25 6
-9 17 -11 17 -25 -2 -8 -11 -16 -37 -16 -57 0 -20 -2 -42 -3 -50 -2 -7 -2 -10
0 -6 2 4 13 -1 25 -10 48 -40 48 -38 16 -99 -16 -32 -34 -61 -40 -64 -5 -4 -3
-9 6 -12 43 -17 -15 -67 -76 -67 -28 0 -30 -2 -27 -37 3 -63 0 -73 -26 -83
-14 -5 -25 -14 -25 -20 0 -6 -4 -9 -9 -5 -12 7 -25 -31 -16 -45 3 -5 19 -10
34 -10 15 0 56 -12 92 -26 67 -28 122 -38 199 -36 25 1 79 -1 120 -4 l75 -6
-52 -25 c-29 -14 -53 -31 -53 -38 0 -24 72 -46 145 -44 39 1 81 -2 95 -6 14
-4 37 -9 53 -12 50 -10 30 -53 -25 -53 -19 0 -48 -21 -48 -36 0 -4 -7 -16 -17
-26 -14 -16 -15 -21 -3 -44 33 -60 75 -51 86 18 6 35 9 39 33 36 23 -3 26 -7
25 -41 -1 -27 -8 -43 -23 -54 -26 -18 -22 -56 10 -86 20 -19 22 -26 20 -67 -2
-42 11 -51 77 -53 34 -1 62 -5 62 -9 0 -4 17 -16 39 -27 89 -46 51 -78 -70
-60 -63 9 -86 9 -107 -1 -15 -7 -100 -16 -192 -21 -170 -8 -240 -21 -240 -42
0 -14 113 -37 179 -37 81 0 150 -21 187 -58 48 -48 57 -67 43 -90 -15 -25 -58
-39 -139 -48 -70 -7 -105 -21 -133 -52 -15 -16 -16 -24 -6 -46 21 -46 56 -61
144 -62 79 -1 80 -1 123 -41 23 -22 42 -45 42 -51 0 -14 35 -34 44 -25 3 3 28
-17 56 -46 45 -47 48 -54 38 -76 -8 -19 -8 -28 2 -40 11 -13 10 -19 -4 -33
-21 -25 -20 -45 4 -67 11 -10 18 -20 15 -23 -3 -3 3 -14 12 -24 15 -17 15 -20
3 -28 -8 -6 -23 -10 -32 -10 -9 0 -19 -4 -23 -9 -3 -6 -33 -10 -67 -10 -41 1
-66 -4 -76 -14 -13 -13 -9 -19 34 -51 28 -20 61 -36 77 -36 31 0 123 -43 148
-69 9 -10 22 -27 28 -39 7 -13 16 -20 21 -17 5 3 11 1 15 -5 3 -5 14 -10 24
-10 23 0 51 -31 51 -55 0 -10 -3 -15 -7 -12 -3 4 -12 2 -20 -4 -9 -8 -35 -9
-78 -5 -78 8 -86 -6 -29 -49 34 -26 36 -30 29 -69 -14 -86 -6 -98 65 -95 50 3
118 -9 125 -21 3 -4 -9 -21 -26 -38 -31 -30 -32 -52 -3 -52 8 0 14 -4 14 -10
0 -5 9 -10 19 -10 19 0 51 -34 51 -53 0 -5 -13 -6 -28 -2 -17 3 -40 0 -58 -10
-16 -8 -39 -15 -51 -15 -31 0 -53 -10 -53 -25 0 -16 43 -65 57 -65 22 0 63
-23 63 -35 0 -19 -57 -55 -88 -55 -16 0 -35 7 -42 15 -13 15 -66 12 -83 -4
-10 -10 13 -51 29 -51 6 0 21 -11 33 -24 13 -13 39 -27 59 -31 20 -4 49 -13
65 -22 26 -13 28 -18 22 -51 -6 -31 -5 -34 9 -23 16 13 56 0 56 -19 0 -6 118
-10 310 -10 l310 0 0 4189 c0 2550 -4 4192 -9 4196 -5 3 -12 18 -15 33 l-6 27
-144 -3 c-166 -3 -172 -1 -149 66 17 51 12 72 -17 72 -19 0 -17 4 14 34 20 18
36 41 36 50 0 9 7 16 15 16 21 0 58 39 51 55 -2 7 2 19 10 25 8 8 14 8 14 2 0
-5 11 -13 24 -16 19 -5 23 -11 19 -27 -8 -30 21 -51 54 -38 13 5 35 9 48 9 24
0 51 32 41 49 -3 4 0 22 7 40 9 24 9 36 -1 51 -15 25 -15 45 0 86 10 28 9 38
-7 67 -15 28 -26 35 -67 44 -40 8 -53 7 -64 -4 -8 -8 -14 -19 -14 -25 0 -6 -7
-16 -17 -23 -13 -10 -20 -9 -35 4 -21 18 -23 62 -7 143 13 62 16 65 104 74 28
3 55 12 61 20 10 12 13 12 17 2 3 -7 6 9 6 35 1 30 -3 46 -9 42 -6 -4 -10 25
-10 80 0 47 4 84 9 81 4 -3 16 2 24 12 15 16 15 21 0 54 -14 31 -22 37 -60 43
-48 7 -50 10 -26 37 15 17 15 18 0 18 -10 0 -17 5 -17 10 0 6 20 10 44 10 81
0 76 -17 76 257 0 237 -1 246 -22 276 -19 27 -22 42 -20 114 3 87 -3 102 -62
171 -20 22 -20 23 -2 57 17 31 48 52 69 47 4 -1 7 24 7 57 0 32 7 75 16 96 13
32 14 74 10 284 -3 135 -8 278 -11 316 -9 139 -8 241 3 310 13 81 16 477 4
503 -5 9 -15 28 -22 41 -11 22 -10 27 9 42 20 16 21 26 20 153 l-1 136 -3799
0 c-3220 0 -3799 -2 -3799 -14 0 -18 -27 -39 -51 -41 -10 -1 -51 -34 -91 -74
-63 -63 -76 -71 -100 -66 -21 5 -32 1 -50 -20 -59 -67 -91 -95 -108 -95 -10 0
-25 -6 -32 -12 -51 -49 -91 -78 -108 -78 -18 0 -18 2 -4 45 9 24 23 47 33 50
10 3 27 19 39 35 13 17 28 30 35 30 7 0 23 9 37 20 14 11 37 20 53 20 19 0 27
5 27 18 0 28 28 61 66 77 19 8 34 20 34 27 0 7 14 24 30 37 17 13 30 27 30 32
0 5 -1764 9 -4205 9 -2313 0 -4205 -3 -4205 -6 0 -4 13 -32 29 -63 17 -31 42
-82 57 -113 14 -32 30 -58 35 -58 5 0 9 -7 9 -15 0 -8 -6 -15 -13 -15 -14 0
-47 35 -47 49 0 5 -7 14 -16 22 -8 7 -27 35 -41 62 -13 27 -33 59 -44 70 -10
12 -19 31 -19 44 l0 23 -4390 0 -4390 0 0 -6250z m22430 6211 c0 -6 -37 -41
-43 -41 -3 0 -1 53 2 57 3 4 41 -10 41 -16z m2414 -77 c19 -18 19 -24 7 -57
-22 -58 -93 -89 -106 -47 -8 25 1 56 27 93 22 30 49 35 72 11z m-2494 -286
c24 -13 59 -42 80 -65 40 -46 71 -54 106 -28 27 20 32 19 39 -15 8 -38 -18
-121 -45 -137 -12 -8 -21 -9 -25 -3 -3 6 -28 10 -56 10 -36 0 -54 -5 -69 -20
-24 -24 -34 -25 -54 -5 -19 19 -40 19 -83 -2 -31 -14 -34 -19 -29 -45 12 -61
-23 -82 -87 -54 -18 7 -45 17 -62 22 -31 10 -32 15 -25 84 2 14 0 40 -4 58 -7
30 -4 37 43 83 27 27 58 65 67 84 15 33 20 35 63 35 25 0 53 5 61 10 22 14 34
12 80 -12z m-14008 -67 c24 -5 34 -13 36 -30 4 -23 4 -23 -75 -16 -90 8 -143
27 -143 50 0 15 9 16 74 10 41 -4 89 -10 108 -14z m8400 -38 c-10 -16 -21 -35
-24 -43 -3 -9 -8 -2 -12 17 -9 40 -2 53 30 53 l25 0 -19 -27z m7946 -29 c4
-31 -43 -39 -63 -11 -19 27 -10 39 28 35 24 -2 33 -9 35 -24z m-7998 -24 c0
-5 -5 -10 -11 -10 -5 0 -7 5 -4 10 3 6 8 10 11 10 2 0 4 -4 4 -10z m-7561 -13
c8 -10 7 -18 -3 -32 -16 -23 -36 -12 -36 21 0 26 21 32 39 11z m15641 -12 c0
-14 -4 -25 -10 -25 -5 0 -10 11 -10 25 0 14 5 25 10 25 6 0 10 -11 10 -25z
m-159 -91 c57 -8 79 -24 79 -60 0 -16 -8 -28 -25 -36 -14 -6 -25 -15 -25 -20
0 -4 -9 -8 -21 -8 -19 0 -21 -5 -17 -61 4 -75 -12 -91 -78 -82 -30 4 -44 2
-44 -6 0 -21 -38 -11 -44 12 -14 52 -7 68 33 84 38 15 39 16 37 62 -1 49 46
172 52 138 2 -12 18 -18 53 -23z m-5441 0 c0 -8 -4 -14 -10 -14 -5 0 -10 9
-10 21 0 11 5 17 10 14 6 -3 10 -13 10 -21z m-11037 -29 c24 -5 28 -10 25 -33
-3 -23 -8 -27 -40 -30 l-38 -3 0 40 c0 28 4 39 13 37 6 -3 25 -7 40 -11z
m15076 -58 c15 -19 2 -29 -15 -12 -8 7 -14 16 -14 19 0 11 17 6 29 -7z
m-14929 -31 c6 -18 20 -26 56 -32 43 -8 49 -12 56 -43 11 -39 6 -48 -15 -26
-9 8 -25 15 -36 15 -12 0 -21 6 -21 15 0 8 -14 17 -36 21 -25 5 -38 14 -45 31
-5 14 -7 29 -3 34 10 17 34 9 44 -15z m15765 -91 c0 -37 -2 -40 -29 -40 -21 0
-31 6 -37 23 -6 16 -5 22 6 22 8 0 15 9 15 21 0 15 5 20 23 17 19 -3 22 -9 22
-43z m-1203 -59 c20 -11 37 -12 59 -6 17 5 59 6 93 3 54 -5 69 -11 100 -40 42
-40 43 -50 16 -100 -11 -21 -20 -55 -20 -77 0 -35 2 -38 23 -32 52 16 87 18
87 7 0 -6 -5 -11 -11 -11 -8 0 -8 -4 1 -15 20 -24 -31 -30 -75 -9 -20 9 -53
18 -73 19 -20 1 -40 3 -44 4 -4 0 -8 16 -10 33 -3 29 -7 33 -36 34 -18 1 -41
9 -51 18 -9 9 -33 19 -52 22 -35 7 -78 30 -91 49 -12 16 -9 39 7 79 17 39 34
44 77 22z m1274 1 c8 3 20 0 28 -6 7 -6 16 -8 20 -4 4 4 4 0 0 -10 -3 -10 -1
-17 5 -17 6 0 11 -4 11 -10 0 -18 -49 -11 -70 10 -11 11 -24 20 -30 20 -5 0
-7 7 -3 16 4 10 9 12 16 5 5 -5 16 -7 23 -4z m267 -46 c17 -17 -9 -62 -30 -54
-10 4 -21 11 -25 17 -4 5 -29 9 -56 7 -29 -1 -53 2 -57 9 -10 16 -4 19 46 30
50 10 107 6 122 -9z m-16353 -61 c0 -28 -19 -34 -41 -14 -22 20 -25 40 -6 47
19 7 47 -12 47 -33z m11084 -3 c19 -19 25 -76 14 -129 -7 -37 -14 -48 -29 -48
-17 0 -19 8 -19 88 0 101 6 117 34 89z m5557 -27 c10 -6 19 -17 19 -25 0 -12
-15 -15 -65 -15 -51 0 -65 3 -65 15 0 8 12 17 28 21 15 3 32 7 37 9 18 6 26 5
46 -5z m-16849 -17 c7 -11 30 -19 53 -22 22 -1 42 -7 45 -12 3 -4 39 -10 79
-13 41 -2 77 -9 80 -14 3 -5 16 -12 28 -16 12 -4 29 -21 37 -37 20 -39 4 -69
-36 -69 -21 0 -28 -5 -28 -20 0 -32 23 -33 100 -6 45 17 95 27 132 27 51 1 63
-2 87 -25 15 -14 31 -26 37 -26 11 0 44 -36 44 -48 0 -4 14 -13 30 -19 17 -6
30 -18 30 -27 0 -10 9 -16 22 -16 21 0 21 -1 6 -16 -14 -14 -28 -15 -95 -8
-43 5 -77 13 -75 17 8 20 -36 36 -95 37 -51 0 -63 -3 -63 -16 0 -11 -6 -14
-21 -9 -13 4 -19 3 -16 -2 4 -6 -25 -10 -67 -11 -57 -2 -76 1 -87 14 -7 9 -32
25 -56 36 -24 11 -43 24 -43 29 0 5 -7 9 -15 9 -8 0 -15 4 -15 9 0 12 -99 29
-195 35 -95 5 -135 20 -128 47 3 11 17 22 32 25 14 3 32 7 39 10 6 2 12 -1 12
-7 0 -7 7 -8 18 -4 9 4 24 8 34 9 30 4 49 26 38 46 -11 21 -13 93 -3 103 12
13 42 7 55 -10z m9543 -9 c13 -6 14 -9 3 -16 -10 -7 -9 -10 5 -19 37 -22 -13
-38 -70 -23 -17 5 -23 14 -23 35 0 26 3 29 34 29 19 0 42 -3 51 -6z m-175 -24
c0 -4 -15 -21 -34 -38 -19 -17 -32 -32 -29 -35 16 -17 -46 10 -65 28 -22 20
-22 22 -5 37 10 9 27 18 38 20 29 5 95 -3 95 -12z m520 -60 c0 -6 -7 -10 -15
-10 -8 0 -15 2 -15 4 0 2 -3 12 -7 21 -5 15 -3 16 15 6 12 -7 22 -16 22 -21z
m6473 -64 c17 -18 30 -201 16 -228 -16 -30 -55 -22 -79 17 -24 38 -55 45 -99
21 -49 -27 -175 27 -238 103 -18 20 -17 24 12 55 30 32 81 35 113 6 16 -16 35
-20 83 -20 54 0 65 4 96 30 36 32 73 38 96 16z m-15493 -48 c63 -46 23 -67
-60 -30 -30 13 -68 26 -84 29 -76 13 -67 22 22 22 80 1 97 -2 122 -21z m10408
-37 c15 -43 1 -87 -26 -83 -12 2 -22 -2 -22 -9 0 -8 -4 -8 -15 1 -11 9 -15 26
-13 54 2 32 9 43 28 53 35 18 37 17 48 -16z m5397 -11 c3 -5 1 -10 -4 -10 -6
0 -11 5 -11 10 0 6 2 10 4 10 3 0 8 -4 11 -10z m-6917 -50 c15 0 22 -6 22 -20
0 -20 -3 -21 -75 -24 -20 -1 -85 -53 -85 -68 0 -5 18 -8 40 -8 l40 0 0 -40 c0
-39 -1 -40 -36 -40 -27 0 -37 5 -41 20 -7 26 -18 25 -37 -2 -14 -20 -19 -21
-49 -10 -18 7 -61 12 -94 12 -33 0 -79 7 -102 15 -22 8 -41 11 -41 6 0 -4 -13
-6 -30 -3 -37 5 -43 41 -7 43 86 5 130 14 160 33 15 11 57 19 111 23 47 3 86
10 86 14 0 5 12 9 26 9 19 0 25 4 20 15 -7 18 23 36 49 30 11 -3 30 -5 43 -5z
m3648 -56 c-9 -8 -16 -24 -16 -34 0 -27 -49 -63 -66 -49 -18 15 1 53 32 68 13
6 24 15 24 21 0 5 9 10 21 10 19 0 19 -1 5 -16z m-12259 -56 c-3 -8 -6 -5 -6
6 -1 11 2 17 5 13 3 -3 4 -12 1 -19z m10104 -72 c-19 -86 -31 -89 -31 -8 0 62
-2 72 -17 72 -17 1 -17 2 0 15 16 12 21 11 39 -7 19 -19 20 -25 9 -72z
m-11100 17 c26 -22 42 -27 86 -27 30 0 46 -3 36 -7 -13 -4 -5 -9 27 -14 25 -5
49 -8 55 -6 12 3 122 -27 147 -40 10 -5 30 -9 45 -9 20 0 24 -3 14 -9 -11 -7
-10 -11 4 -19 23 -12 13 -42 -14 -42 -31 0 -125 33 -134 47 -4 7 -22 13 -39
13 -17 0 -45 8 -62 19 -18 11 -58 21 -97 24 -80 5 -118 28 -119 70 0 34 10 34
51 0z m442 -20 c3 -5 -1 -14 -8 -20 -11 -10 -18 -8 -34 14 -12 14 -21 30 -21
35 0 9 55 -16 63 -29z m97 -39 c12 -22 12 -27 0 -34 -25 -16 -30 -11 -30 25 0
41 11 45 30 9z m9174 -9 c3 -8 12 -15 19 -15 8 0 20 -7 27 -15 7 -8 24 -15 39
-15 35 0 56 -32 39 -60 -9 -14 -24 -20 -50 -20 -35 0 -38 2 -44 35 -6 36 -25
57 -32 37 -3 -10 -39 -1 -61 15 -6 4 40 53 50 53 4 0 9 -7 13 -15z m6296 -4
c0 -12 -20 -25 -27 -18 -7 7 6 27 18 27 5 0 9 -4 9 -9z m230 -57 c0 -32 -2
-35 -22 -28 -12 3 -30 14 -41 24 -18 17 -18 18 0 29 10 6 28 11 41 11 19 0 22
-5 22 -36z m-5150 -24 c0 -22 -4 -40 -10 -40 -5 0 -10 18 -10 40 0 22 5 40 10
40 6 0 10 -18 10 -40z m-2125 -21 c39 -10 42 -13 29 -26 -16 -16 -145 -39
-169 -29 -15 5 -16 30 -2 54 10 15 83 16 142 1z m345 -26 c0 -8 15 -13 40 -13
22 0 40 5 40 10 0 6 7 10 15 10 8 0 15 -6 15 -14 0 -8 -7 -21 -15 -30 -8 -8
-15 -26 -15 -40 0 -30 -7 -32 -39 -10 -32 23 -67 5 -89 -47 -17 -41 -18 -41
-75 -42 -54 -2 -57 -1 -62 25 -4 14 -13 29 -22 32 -25 10 -53 -3 -53 -24 0
-36 -75 -55 -100 -25 -7 8 -25 15 -41 15 -27 0 -29 3 -29 40 0 39 1 40 35 40
21 0 44 -8 56 -19 32 -30 56 -16 62 36 5 46 25 79 34 56 3 -9 10 -10 24 -3 13
8 25 7 39 0 16 -9 20 -8 20 5 0 13 13 15 80 13 56 -2 80 -7 80 -15z m1783 -15
c7 -22 -15 -82 -35 -97 -17 -11 -19 -20 -13 -58 6 -39 3 -50 -22 -85 l-28 -41
-12 32 c-16 38 -8 78 18 92 15 8 18 20 17 67 -2 65 4 79 36 92 29 12 34 12 39
-2z m5385 -22 c6 -30 -19 -67 -42 -64 -23 3 -42 47 -33 72 10 25 71 18 75 -8z
m-16398 -28 c0 -4 -37 -8 -82 -7 -46 0 -75 3 -66 7 25 10 148 10 148 0z
m16684 -56 c12 -20 -10 -28 -28 -11 -19 19 -19 19 2 19 11 0 23 -4 26 -8z
m-7054 -42 c0 -13 9 -22 28 -26 48 -10 52 -13 52 -39 0 -16 -6 -25 -16 -25
-16 0 -55 18 -64 30 -3 3 -26 14 -52 24 -47 17 -58 29 -38 41 6 3 10 -1 10 -9
0 -9 2 -16 5 -16 12 0 55 24 55 32 0 4 5 8 10 8 6 0 10 -9 10 -20z m3535 -70
c24 0 27 -34 4 -53 -27 -22 -49 -7 -49 32 0 32 23 62 28 37 2 -9 9 -16 17 -16z
m-2245 -115 c14 -17 7 -58 -21 -119 -11 -25 -19 -64 -19 -99 0 -58 -9 -77 -42
-90 -22 -8 -22 -5 -3 56 8 26 10 47 5 47 -5 0 -8 36 -8 80 1 70 3 80 19 80 13
0 16 5 12 16 -4 11 1 22 12 30 24 18 30 17 45 -1z m-1973 -36 c5 -5 36 -13 67
-16 31 -3 56 -9 56 -13 0 -5 36 -11 80 -15 69 -6 80 -10 80 -26 0 -16 7 -19
43 -19 24 0 48 5 55 12 17 17 69 12 101 -11 16 -12 44 -24 63 -27 18 -4 47
-17 65 -30 17 -13 34 -24 37 -24 3 0 24 -18 47 -41 32 -31 47 -39 64 -35 26 7
85 -3 85 -13 0 -13 -159 -28 -198 -20 -20 5 -59 11 -85 15 -34 4 -47 9 -44 18
6 16 -37 41 -53 31 -6 -4 -9 -13 -6 -20 8 -22 -28 -27 -120 -20 -68 6 -84 10
-84 24 0 31 -18 43 -66 47 -29 2 -53 9 -60 18 -6 9 -15 16 -19 16 -17 0 -43
32 -38 46 3 8 -1 14 -10 14 -8 0 -17 -5 -19 -11 -5 -16 -92 -16 -112 0 -20 17
-21 60 0 89 16 23 53 29 71 11z m7761 -36 c3 -17 -3 -24 -22 -29 -29 -7 -51 7
-59 37 -5 18 -1 20 36 17 35 -2 43 -7 45 -25z m-17558 -93 c0 -5 -4 -10 -10
-10 -5 0 -10 5 -10 10 0 6 5 10 10 10 6 0 10 -4 10 -10z m17455 -81 c-10 -15
-25 -10 -19 6 4 8 10 12 15 9 5 -3 7 -10 4 -15z m85 -39 c17 -16 41 -30 54
-30 27 0 68 -40 49 -47 -7 -3 -13 -13 -13 -23 0 -14 -14 -23 -54 -34 -41 -12
-53 -20 -51 -34 1 -9 0 -11 -2 -4 -3 6 -8 12 -12 12 -17 0 -36 103 -32 173 1
26 27 21 61 -13z m-10899 -72 c0 -74 -9 -118 -23 -118 -7 0 -8 28 -4 78 12
129 27 152 27 40z m4559 7 c0 -8 -7 -15 -15 -15 -16 0 -20 12 -8 23 11 12 23
8 23 -8z m456 -41 c9 -35 -4 -152 -20 -183 -7 -14 -19 -44 -26 -66 -7 -22 -16
-42 -19 -45 -9 -8 -51 -96 -51 -108 0 -6 -8 -16 -18 -21 -11 -6 -29 -36 -40
-68 -12 -32 -29 -68 -39 -79 -34 -39 -96 -162 -123 -244 -12 -36 -32 -76 -45
-90 -31 -33 -45 -71 -46 -128 -1 -87 -12 -127 -37 -130 -15 -2 -27 -16 -37
-39 -15 -36 -82 -113 -99 -113 -5 0 -19 -12 -31 -26 -13 -15 -30 -24 -41 -22
-16 3 -19 13 -20 62 -1 54 1 61 30 86 30 28 30 29 18 74 -6 26 -12 63 -12 84
0 36 1 37 59 55 l59 19 0 44 c0 24 7 53 16 66 9 12 16 39 16 59 0 22 10 50 25
73 20 29 25 49 25 97 0 33 5 69 10 80 12 21 14 21 -142 28 -23 1 -27 6 -31 39
-2 20 -2 2 1 -40 4 -74 3 -78 -17 -78 -18 0 -21 -6 -21 -41 l0 -41 -34 6 c-54
10 -166 -4 -166 -21 0 -20 -107 -14 -115 6 -7 19 4 51 18 52 7 1 18 2 26 3 8
0 22 15 31 31 11 20 24 30 41 30 19 0 25 6 27 28 2 15 7 27 12 27 4 0 11 19
15 43 10 64 26 99 42 92 8 -3 26 -8 39 -11 15 -4 24 -13 24 -25 0 -10 7 -19
15 -19 17 0 22 65 5 75 -5 3 -10 42 -10 86 0 46 4 79 10 79 6 0 10 18 10 40 0
39 1 40 36 40 36 0 82 34 96 72 8 20 70 36 76 19 6 -18 82 -14 82 4 0 20 17
19 28 -1 8 -13 31 -18 111 -22 l101 -5 0 -33 c0 -24 5 -34 15 -34 11 0 15 11
15 40 0 29 -4 40 -15 40 -8 0 -15 5 -15 10 0 6 9 10 19 10 11 0 32 13 48 30
35 37 61 38 69 4z m5366 -33 c9 -14 16 -17 29 -11 9 5 35 14 59 19 39 9 44 7
71 -20 15 -16 32 -29 37 -29 20 0 43 -26 36 -43 -6 -17 -63 -25 -78 -10 -15
16 -113 34 -169 33 -51 -1 -127 14 -127 26 0 2 10 15 22 29 28 32 101 36 120
6z m-1822 -168 c0 -5 -7 -17 -15 -27 -11 -15 -18 -17 -26 -9 -8 8 -8 15 2 27
15 16 39 21 39 9z m-4240 -48 c0 -25 -4 -45 -10 -45 -11 0 -14 73 -3 83 11 12
13 8 13 -38z m6420 -86 c0 -21 -4 -39 -10 -39 -5 0 -10 -7 -10 -15 0 -8 -4
-15 -9 -15 -5 0 -14 7 -21 15 -7 8 -9 15 -4 15 4 0 3 5 -4 12 -18 18 -14 45 9
62 32 22 49 10 49 -35z m-15869 10 c22 -11 48 -33 57 -50 9 -16 20 -29 25 -29
4 0 7 -5 7 -11 0 -7 8 -19 18 -28 18 -15 46 -100 37 -110 -9 -9 -35 23 -35 43
0 31 -10 41 -65 66 -27 12 -61 31 -74 41 -15 12 -32 17 -47 13 -17 -5 -24 -2
-24 9 0 8 -3 23 -6 32 -5 11 0 18 15 22 11 3 21 9 21 14 0 15 29 10 71 -12z
m279 -141 c0 -22 -27 -35 -42 -20 -8 8 -8 19 1 38 9 21 14 24 26 14 8 -7 15
-21 15 -32z m5770 -33 c0 -23 -25 -46 -43 -39 -22 8 -22 42 0 66 16 18 18 18
30 2 7 -10 13 -23 13 -29z m-7720 9 c0 -22 -2 -24 -14 -14 -8 6 -12 18 -9 26
9 23 23 16 23 -12z m17825 12 c18 -13 18 -14 1 -41 -14 -21 -17 -41 -14 -81 5
-54 -5 -70 -35 -58 -20 7 -47 80 -47 128 0 35 4 45 23 54 31 15 50 14 72 -2z
m-810 -86 c11 -17 -5 -32 -21 -19 -7 6 -11 15 -8 20 7 12 21 11 29 -1z m461
-40 c1 -14 2 -29 4 -35 10 -39 -16 -49 -72 -29 -28 10 -44 11 -46 4 -5 -15
-22 -12 -22 5 0 8 8 15 18 15 9 0 31 9 47 20 17 11 26 20 21 20 -5 0 -3 7 4
15 19 23 45 14 46 -15z m-17156 -160 c0 -5 -5 -10 -11 -10 -5 0 -7 5 -4 10 3
6 8 10 11 10 2 0 4 -4 4 -10z m80 0 c0 -5 -10 -10 -22 -10 -19 0 -20 2 -8 10
19 13 30 13 30 0z m958 -39 c3 -20 1 -22 -20 -16 -30 10 -32 11 -24 30 9 24
40 14 44 -14z m6460 7 c3 -13 -3 -18 -21 -18 -29 0 -37 7 -30 27 8 19 47 12
51 -9z m-7503 -18 c3 -6 -1 -7 -9 -4 -18 7 -21 14 -7 14 6 0 13 -4 16 -10z
m565 -179 c0 -5 18 -7 40 -4 35 5 40 3 40 -15 0 -15 -5 -19 -19 -15 -24 6 -61
-13 -61 -32 0 -8 -9 -20 -20 -27 -11 -7 -20 -21 -20 -30 0 -10 -4 -18 -10 -18
-5 0 -10 13 -10 29 0 17 -4 33 -10 36 -5 3 -10 24 -10 46 0 39 0 39 40 39 22
0 40 -4 40 -9z m148 -82 c-2 -15 -13 -27 -30 -33 -30 -10 -51 0 -29 13 9 6 10
11 2 15 -6 4 -11 14 -11 22 0 8 4 12 10 9 5 -3 18 -2 27 4 23 12 36 0 31 -30z
m-71 -86 c1 -35 -5 -41 -25 -21 -7 7 -12 9 -12 5 0 -4 -9 -3 -19 3 -14 7 -21
6 -24 -3 -3 -6 -6 0 -6 15 -1 30 11 38 54 35 26 -2 30 -6 32 -34z m510 0 c29
-10 53 -24 53 -30 0 -16 -6 -16 -33 -1 -12 7 -43 13 -70 14 -51 1 -63 6 -52
23 9 16 41 14 102 -6z m16377 -5 c3 -13 6 -37 6 -55 l0 -32 -25 23 c-27 25
-32 55 -13 74 17 17 25 15 32 -10z m-16679 2 c4 -6 -6 -10 -22 -10 -22 0 -25
2 -13 10 19 12 27 12 35 0z m-245 -239 c0 -15 49 -18 69 -4 14 9 22 10 26 2
13 -20 -12 -30 -86 -34 -41 -2 -93 -6 -115 -9 -33 -4 -45 -1 -59 14 -18 19
-17 20 13 20 19 0 32 -5 33 -12 0 -10 2 -10 6 0 2 6 12 12 22 12 9 0 24 9 34
20 14 17 21 18 37 10 11 -6 20 -15 20 -19z m9902 -216 c2 -30 -2 -50 -11 -60
-13 -13 -12 -17 4 -35 18 -20 18 -20 -9 -20 -21 0 -29 7 -42 41 -15 36 -20 40
-43 35 -14 -3 -20 -3 -13 0 6 3 12 21 12 39 0 33 2 34 43 38 23 2 45 4 48 5 4
1 9 -18 11 -43z m6818 40 c0 -2 -9 -9 -20 -15 -16 -9 -20 -8 -20 5 0 8 9 15
20 15 11 0 20 -2 20 -5z m-16820 -26 c0 -5 -4 -9 -10 -9 -5 0 -10 7 -10 16 0
8 5 12 10 9 6 -3 10 -10 10 -16z m10592 -86 c5 -56 -3 -143 -12 -143 -9 0 -17
99 -11 148 5 44 19 41 23 -5z m-533 -87 c15 -8 36 -27 45 -41 10 -14 23 -24
29 -22 7 2 26 0 42 -5 17 -6 51 -9 78 -8 46 1 47 0 47 -28 0 -29 20 -43 93
-66 21 -7 23 -26 2 -26 -19 0 -19 -24 0 -40 8 -7 14 -25 12 -44 -2 -27 1 -31
23 -31 16 0 26 6 28 18 2 10 -3 17 -12 17 -26 0 -18 27 14 50 26 18 30 28 30
66 0 32 -4 44 -15 44 -25 0 -17 14 23 40 20 14 40 29 44 34 10 15 21 -61 14
-104 -3 -22 -12 -59 -20 -82 -8 -24 -17 -55 -20 -70 -3 -15 -14 -29 -24 -32
-16 -5 -18 -14 -14 -59 4 -48 2 -55 -21 -70 -14 -9 -29 -27 -33 -39 -4 -12
-29 -51 -55 -87 -27 -35 -49 -67 -49 -71 0 -4 -18 -19 -39 -33 -22 -15 -54
-47 -71 -72 -19 -27 -41 -47 -58 -52 -15 -3 -39 -18 -54 -33 -21 -21 -33 -26
-60 -22 -18 3 -79 4 -136 3 l-103 -2 -10 29 c-8 24 -22 34 -67 51 -84 31 -88
35 -74 66 7 14 12 44 12 65 0 21 7 64 15 95 8 31 17 91 20 133 6 89 21 136 42
128 8 -3 16 2 19 12 3 9 21 48 41 86 19 38 37 78 39 90 2 11 10 27 19 35 12
13 18 13 40 1 24 -13 28 -12 55 19 17 18 30 38 30 46 0 26 39 31 79 11z
m-8368 -306 c12 -7 19 -21 19 -40 0 -24 -5 -31 -27 -36 -50 -13 -80 30 -47 67
20 22 28 23 55 9z m-574 -326 c16 -22 6 -42 -28 -59 -37 -20 -85 -19 -93 1
-10 27 -7 43 15 65 17 17 29 20 58 15 20 -3 41 -13 48 -22z m5783 -265 c29
-54 -22 -99 -66 -58 -28 26 -30 42 -8 63 22 23 61 20 74 -5z m660 -90 c0 -6
-4 -7 -10 -4 -5 3 -10 11 -10 16 0 6 5 7 10 4 6 -3 10 -11 10 -16z m30 -121
c0 -5 -4 -8 -10 -8 -5 0 -10 10 -10 23 0 18 2 19 10 7 5 -8 10 -18 10 -22z
m-1281 -107 c26 -26 17 -56 -25 -82 -44 -27 -84 -22 -104 13 -19 35 -6 58 41
75 48 17 66 16 88 -6z m-8492 -173 c-3 -8 -6 -5 -6 6 -1 11 2 17 5 13 3 -3 4
-12 1 -19z m10353 -373 c0 -8 -7 -15 -15 -15 -8 0 -17 -11 -21 -25 -6 -24 -34
-36 -34 -14 0 15 21 53 34 61 18 13 36 9 36 -7z m-2187 -12 c13 -15 13 -21 3
-35 -18 -25 -53 -23 -61 2 -7 22 10 50 30 50 6 0 19 -8 28 -17z m7937 -627 c0
-8 -4 -18 -10 -21 -5 -3 -10 3 -10 14 0 12 5 21 10 21 6 0 10 -6 10 -14z m64
-190 c-8 -34 -40 -52 -60 -35 -18 15 -18 29 1 29 8 0 15 5 15 10 0 10 41 31
48 25 2 -1 0 -15 -4 -29z m-14549 4 c3 -5 1 -10 -4 -10 -6 0 -11 5 -11 10 0 6
2 10 4 10 3 0 8 -4 11 -10z m-1375 -130 c0 -22 -4 -40 -10 -40 -5 0 -10 18
-10 40 0 22 5 40 10 40 6 0 10 -18 10 -40z m-180 -55 c0 -8 -4 -15 -10 -15 -5
0 -10 7 -10 15 0 8 5 15 10 15 6 0 10 -7 10 -15z m16222 -17 c-9 -9 -12 -7
-12 12 0 19 3 21 12 12 9 -9 9 -15 0 -24z m-10869 -15 c3 -5 8 -29 11 -55 9
-57 -4 -62 -33 -14 -27 43 -28 76 -2 76 11 0 22 -3 24 -7z m990 -47 c7 -18 -1
-26 -25 -26 -11 0 -18 7 -18 20 0 23 35 28 43 6z m-6163 -76 c0 -5 -2 -10 -4
-10 -3 0 -8 5 -11 10 -3 6 -1 10 4 10 6 0 11 -4 11 -10z m16263 -140 c6 -25
-14 -42 -33 -29 -11 8 -12 12 -2 16 6 2 12 11 12 19 0 21 17 17 23 -6z
m-15783 -104 c0 -16 -82 -26 -221 -26 -92 0 -99 1 -99 20 0 19 7 20 160 20
128 0 160 -3 160 -14z m15907 -52 c2 -6 -8 -16 -22 -24 -20 -10 -30 -11 -51
-2 -22 11 -28 9 -44 -10 -19 -22 -19 -22 -20 -3 0 37 126 73 137 39z m38 -4
c0 -7 -6 -15 -12 -17 -8 -3 -13 4 -13 17 0 13 5 20 13 18 6 -3 12 -11 12 -18z
m-11755 0 c0 -5 -7 -10 -15 -10 -8 0 -15 5 -15 10 0 6 7 10 15 10 8 0 15 -4
15 -10z m1970 -80 c0 -5 -8 -10 -17 -10 -15 0 -16 2 -3 10 19 12 20 12 20 0z
m9915 -42 c23 -11 34 -45 19 -61 -7 -6 -34 16 -34 28 0 4 -10 15 -22 26 -19
15 -20 18 -6 19 9 0 29 -5 43 -12z m-14412 -5 c-13 -2 -33 -2 -45 0 -13 2 -3
4 22 4 25 0 35 -2 23 -4z m14303 -27 c26 -20 9 -36 -45 -43 -43 -6 -60 9 -47
42 7 19 66 20 92 1z m-12816 -170 c0 -2 -7 -6 -15 -10 -8 -3 -15 -1 -15 4 0 6
7 10 15 10 8 0 15 -2 15 -4z m2774 -51 c45 -25 50 -60 9 -68 -21 -4 -32 -1
-42 14 -7 10 -20 19 -28 19 -19 0 -57 36 -49 48 9 15 71 8 110 -13z m-2503 -5
c112 -28 108 -26 102 -49 -5 -18 -13 -21 -59 -21 -75 0 -104 -15 -104 -54 1
-42 61 -86 119 -86 62 0 49 -17 -16 -23 -42 -3 -65 -1 -82 10 -16 10 -39 14
-72 11 -58 -6 -72 6 -67 54 4 41 38 54 38 15 0 -20 4 -23 25 -19 14 2 28 8 31
13 7 12 -57 39 -91 39 -25 0 -26 2 -23 58 l3 57 38 2 c21 0 41 4 44 7 10 9 24
7 114 -14z m-221 -65 c0 -41 -3 -75 -8 -75 -4 0 -18 7 -31 16 -20 15 -23 23
-19 66 5 48 18 68 46 68 8 0 12 -22 12 -75z m-80 19 c0 -14 -3 -14 -15 -4 -8
7 -15 14 -15 16 0 2 7 4 15 4 8 0 15 -7 15 -16z m6515 -194 c0 -8 -8 -16 -17
-18 -13 -2 -18 3 -18 18 0 15 5 20 18 18 9 -2 17 -10 17 -18z m-3555 -284 c0
-8 6 -16 13 -19 6 -2 0 -8 -16 -12 -34 -9 -63 10 -46 31 15 18 49 18 49 0z
m518 -14 l44 -7 -31 -22 c-27 -21 -41 -23 -151 -23 -113 0 -120 1 -120 20 0
11 3 20 8 21 4 0 32 2 64 4 31 1 64 8 75 14 10 6 29 9 43 5 14 -3 45 -8 68
-12z m1050 -51 c17 -7 32 -19 32 -25 0 -16 -76 -33 -114 -26 -36 6 -35 20 2
40 15 8 29 19 31 23 1 4 6 6 10 4 3 -2 21 -9 39 -16z m2035 -9 c-6 -23 -24
-25 -31 -4 -2 7 3 12 12 12 9 0 16 5 16 12 0 6 2 9 5 7 2 -3 2 -15 -2 -27z
m34 -52 c3 -11 9 -20 14 -20 5 0 9 -10 9 -22 l-1 -23 -18 23 c-11 12 -24 22
-30 22 -12 0 -15 23 -4 33 12 13 25 7 30 -13z m7060 -66 c8 -20 -17 -36 -34
-22 -10 8 -10 14 -2 24 15 18 28 18 36 -2z m-7387 -234 c0 -5 -2 -10 -4 -10
-3 0 -8 5 -11 10 -3 6 -1 10 4 10 6 0 11 -4 11 -10z m20 -220 c0 -11 -4 -20
-10 -20 -5 0 -10 9 -10 20 0 11 5 20 10 20 6 0 10 -9 10 -20z m98 -24 c3 -39
-4 -73 -14 -63 -10 10 -23 79 -17 94 10 25 28 7 31 -31z m-68 -97 c0 -17 -20
-29 -20 -11 0 4 -3 18 -7 32 -6 22 -5 24 10 11 9 -7 17 -22 17 -32z m-129 5
c9 -24 -4 -50 -20 -40 -15 10 -14 69 1 64 6 -2 14 -13 19 -24z m7889 -91 c-1
-18 -37 -51 -62 -57 -16 -3 -39 -9 -52 -12 -17 -4 -30 1 -45 17 -25 27 -27 44
-5 35 8 -3 12 -2 9 4 -3 5 18 11 47 13 29 2 65 4 81 5 15 1 27 -1 27 -5z
m-7851 -39 c14 -32 3 -54 -16 -29 -14 21 -18 55 -5 55 5 0 14 -12 21 -26z
m251 -175 c0 -38 -3 -68 -8 -66 -6 4 -7 56 -2 130 0 4 2 7 5 7 3 0 5 -32 5
-71z m7416 56 c18 -12 15 -15 -29 -34 -27 -12 -52 -21 -57 -21 -9 0 -18 40
-13 57 5 15 77 14 99 -2z m-7138 -148 c3 -22 -1 -27 -17 -27 -17 0 -21 6 -21
31 0 24 4 30 18 27 10 -2 18 -14 20 -31z m7649 -419 c-3 -7 -5 -2 -5 12 0 14
2 19 5 13 2 -7 2 -19 0 -25z m-7447 -263 c0 -8 -2 -15 -4 -15 -2 0 -6 7 -10
15 -3 8 -1 15 4 15 6 0 10 -7 10 -15z m-10320 -295 c0 -5 -7 -10 -16 -10 -8 0
-12 5 -9 10 3 6 10 10 16 10 5 0 9 -4 9 -10z m10265 -80 c3 -5 -1 -10 -9 -10
-9 0 -16 5 -16 10 0 6 4 10 9 10 6 0 13 -4 16 -10z m-425 -160 c0 -5 -18 -10
-40 -10 -22 0 -40 5 -40 10 0 6 18 10 40 10 22 0 40 -4 40 -10z m-9980 -81 c0
-5 -4 -9 -10 -9 -5 0 -10 7 -10 16 0 8 5 12 10 9 6 -3 10 -10 10 -16z m9176
-666 c-2 -3 -9 -2 -15 2 -8 4 -7 13 1 28 l13 22 3 -23 c2 -13 1 -26 -2 -29z
m9192 -139 c30 -9 28 -30 -5 -38 -33 -9 -68 19 -43 34 18 11 18 11 48 4z
m-221 -156 c-3 -8 -6 -5 -6 6 -1 11 2 17 5 13 3 -3 4 -12 1 -19z m-9737 -48
c0 -29 -4 -40 -15 -40 -8 0 -15 -9 -15 -20 0 -11 -5 -20 -11 -20 -6 0 -13 9
-16 20 -3 13 -14 20 -29 20 -19 0 -24 5 -24 24 0 13 -3 31 -6 40 -5 14 3 16
55 16 l61 0 0 -40z m70 -31 c0 -5 -4 -9 -10 -9 -5 0 -10 7 -10 16 0 8 5 12 10
9 6 -3 10 -10 10 -16z m-7670 -155 c0 -8 -10 -14 -25 -14 -28 0 -30 3 -13 30
9 14 16 16 25 8 7 -6 13 -17 13 -24z m17585 -4 c3 -5 1 -10 -4 -10 -6 0 -11 5
-11 10 0 6 2 10 4 10 3 0 8 -4 11 -10z m95 -391 c0 -5 -7 -9 -15 -9 -8 0 -15
7 -15 15 0 9 6 12 15 9 8 -4 15 -10 15 -15z"/>
<path d="M22252 12004 c-18 -19 -15 -47 10 -99 14 -29 29 -45 40 -45 10 0 18
4 18 9 0 5 9 11 20 14 14 3 20 14 20 31 0 14 -9 35 -20 46 -11 11 -20 24 -20
29 0 8 -22 21 -45 26 -6 1 -16 -3 -23 -11z"/>
<path d="M23120 11289 c0 -5 5 -7 10 -4 6 3 10 8 10 11 0 2 -4 4 -10 4 -5 0
-10 -5 -10 -11z"/>
<path d="M17138 10663 c12 -2 32 -2 45 0 12 2 2 4 -23 4 -25 0 -35 -2 -22 -4z"/>
<path d="M18720 9825 c0 -9 6 -12 15 -9 8 4 12 10 9 15 -8 14 -24 10 -24 -6z"/>
<path d="M18640 9759 c0 -18 2 -19 15 -9 8 7 15 16 15 21 0 5 -7 9 -15 9 -9 0
-15 -9 -15 -21z"/>
<path d="M18418 9703 c12 -2 32 -2 45 0 12 2 2 4 -23 4 -25 0 -35 -2 -22 -4z"/>
<path d="M18435 9613 c22 -3 42 -9 46 -14 3 -6 11 -3 19 6 11 13 6 15 -46 13
-47 -1 -51 -2 -19 -5z"/>
<path d="M18154 7792 c-16 -26 7 -46 32 -27 15 11 16 15 5 29 -17 20 -24 20
-37 -2z"/>
<path d="M18029 7711 c-14 -16 -15 -22 -2 -52 18 -44 21 -46 38 -23 18 23 19
66 3 82 -16 16 -21 15 -39 -7z"/>
<path d="M8720 10628 c0 -61 2 -64 40 -95 21 -18 43 -33 48 -33 5 0 15 -7 22
-15 7 -8 16 -13 20 -10 12 7 4 85 -9 98 -6 6 -11 23 -11 38 0 15 -7 34 -15 43
-8 8 -15 19 -15 25 0 6 -18 11 -40 11 l-40 0 0 -62z"/>
<path d="M13331 10674 c0 -11 3 -14 6 -6 3 7 2 16 -1 19 -3 4 -6 -2 -5 -13z"/>
<path d="M13231 10599 c-10 -27 -6 -34 27 -44 17 -5 22 -2 22 13 0 10 -9 27
-20 37 -19 17 -20 17 -29 -6z"/>
<path d="M9872 10448 c-15 -15 -15 -48 -1 -85 12 -32 4 -102 -15 -128 -9 -13
-25 -18 -55 -17 l-41 2 0 -59 c0 -51 4 -63 35 -102 19 -24 35 -53 35 -64 0
-16 2 -17 9 -6 5 8 7 45 5 82 -4 59 -3 69 14 78 22 12 62 -11 62 -35 0 -8 7
-14 16 -14 14 0 15 9 10 63 -3 34 -8 105 -11 157 -7 115 -30 161 -63 128z"/>
<path d="M10786 10384 c-18 -17 -22 -64 -6 -64 6 0 14 8 17 18 4 9 12 21 20
25 17 11 17 37 -1 37 -8 0 -22 -7 -30 -16z"/>
<path d="M10195 10370 c3 -5 8 -10 11 -10 2 0 4 5 4 10 0 6 -5 10 -11 10 -5 0
-7 -4 -4 -10z"/>
<path d="M10243 10345 c-7 -8 -13 -23 -13 -34 0 -32 -18 -71 -33 -71 -8 0 -19
-18 -26 -41 -11 -36 -10 -44 8 -75 12 -19 21 -41 21 -48 0 -8 7 -19 16 -27 25
-21 36 7 31 88 -3 60 -1 74 15 87 18 16 24 68 12 114 -7 25 -14 27 -31 7z"/>
<path d="M10116 10321 c-26 -29 -17 -65 17 -69 23 -3 27 0 27 20 -1 13 -6 33
-13 46 -13 23 -13 23 -31 3z"/>
<path d="M9518 10258 c5 -5 16 -8 23 -6 8 3 3 7 -10 11 -17 4 -21 3 -13 -5z"/>
<path d="M9460 10210 c0 -5 5 -10 10 -10 6 0 10 5 10 10 0 6 -4 10 -10 10 -5
0 -10 -4 -10 -10z"/>
<path d="M9657 10203 c-12 -11 -8 -23 8 -23 8 0 15 7 15 15 0 16 -12 20 -23 8z"/>
<path d="M9497 10143 c-13 -12 -7 -71 8 -83 8 -7 15 -19 15 -26 0 -8 6 -14 14
-14 8 0 31 -16 50 -35 20 -19 40 -35 44 -35 20 0 52 34 52 54 0 30 -60 96 -88
96 -11 0 -32 11 -46 25 -26 26 -38 30 -49 18z"/>
<path d="M7607 10103 c-12 -11 -8 -23 7 -23 7 0 19 7 26 15 10 12 9 15 -7 15
-11 0 -23 -3 -26 -7z"/>
<path d="M9234 10070 c-5 -5 -7 -38 -4 -75 5 -54 3 -65 -10 -65 -37 0 -58 -29
-65 -90 -6 -51 -12 -64 -35 -81 -32 -24 -30 -51 5 -67 29 -14 35 -7 35 40 0
44 18 50 50 18 24 -24 25 -55 5 -102 -14 -34 -13 -36 11 -47 14 -6 44 -11 67
-11 30 0 45 -5 54 -18 11 -18 100 -58 109 -49 9 8 -37 100 -61 123 -13 12 -27
39 -31 60 -4 22 -15 50 -26 63 -11 15 -18 37 -16 58 2 27 6 33 24 33 17 0 23
-8 28 -40 3 -22 12 -40 19 -40 15 0 47 -51 47 -74 0 -13 28 -36 44 -36 7 0 -3
86 -15 126 -5 17 -17 40 -27 50 -24 28 -42 61 -42 79 0 8 -4 15 -9 15 -5 0
-14 14 -21 31 -10 24 -11 36 -2 50 17 27 16 28 -23 45 -39 16 -96 19 -111 4z
m46 -160 c0 -5 -7 -10 -16 -10 -8 0 -12 5 -9 10 3 6 10 10 16 10 5 0 9 -4 9
-10z"/>
<path d="M9594 9918 c3 -13 6 -27 6 -31 0 -5 10 -7 23 -5 16 2 23 11 25 31 3
24 0 27 -29 27 -28 0 -31 -3 -25 -22z"/>
<path d="M8878 9798 c-9 -25 4 -38 39 -38 40 0 68 21 50 39 -15 15 -84 14 -89
-1z"/>
<path d="M9497 9643 c-4 -3 -7 -24 -7 -45 0 -27 4 -38 15 -38 8 0 15 -4 15
-10 0 -5 7 -10 15 -10 17 0 14 29 -8 83 -12 28 -19 32 -30 20z"/>
<path d="M7800 9557 c0 -19 21 -27 68 -27 35 0 36 0 15 15 -34 24 -83 31 -83
12z"/>
<path d="M9185 9450 c3 -5 8 -10 11 -10 2 0 4 5 4 10 0 6 -5 10 -11 10 -5 0
-7 -4 -4 -10z"/>
<path d="M7760 9415 c0 -11 11 -15 40 -15 29 0 40 4 40 15 0 11 -11 15 -40 15
-29 0 -40 -4 -40 -15z"/>
<path d="M8225 9290 c3 -5 8 -10 11 -10 2 0 4 5 4 10 0 6 -5 10 -11 10 -5 0
-7 -4 -4 -10z"/>
<path d="M14313 9254 c-15 -16 -17 -34 -4 -34 10 0 26 39 19 45 -1 2 -9 -3
-15 -11z"/>
<path d="M8760 9040 c0 -29 24 -35 54 -15 37 24 32 35 -14 35 -34 0 -40 -3
-40 -20z"/>
<path d="M24801 8586 c-1 -26 2 -37 9 -30 6 6 6 21 1 39 -9 30 -9 30 -10 -9z"/>
<path d="M13316 7144 c-5 -12 -2 -15 10 -10 8 3 20 6 25 6 6 0 7 5 4 10 -10
15 -32 12 -39 -6z"/>
<path d="M18305 6810 c3 -5 8 -10 11 -10 2 0 4 5 4 10 0 6 -5 10 -11 10 -5 0
-7 -4 -4 -10z"/>
<path d="M12428 6033 c-42 -7 -33 -23 12 -23 29 0 40 4 40 15 0 8 -6 14 -12
14 -7 -1 -25 -4 -40 -6z"/>
<path d="M20738 6013 c12 -2 32 -2 45 0 12 2 2 4 -23 4 -25 0 -35 -2 -22 -4z"/>
<path d="M12418 5993 c12 -2 30 -2 40 0 9 3 -1 5 -23 4 -22 0 -30 -2 -17 -4z"/>
<path d="M20837 5914 c-10 -11 3 -24 24 -24 10 0 19 7 19 15 0 15 -31 21 -43
9z"/>
<path d="M8000 5100 l0 -40 40 0 40 0 0 40 0 40 -40 0 -40 0 0 -40z"/>
<path d="M8720 5070 c0 -5 7 -10 15 -10 8 0 15 5 15 10 0 6 -7 10 -15 10 -8 0
-15 -4 -15 -10z"/>
<path d="M8545 4910 c-3 -5 -1 -10 4 -10 6 0 11 5 11 10 0 6 -2 10 -4 10 -3 0
-8 -4 -11 -10z"/>
<path d="M8960 4841 c0 -12 5 -21 10 -21 6 0 10 6 10 14 0 8 -4 18 -10 21 -5
3 -10 -3 -10 -14z"/>
<path d="M22195 4496 c-22 -13 -40 -29 -39 -35 1 -6 2 -16 3 -22 1 -8 21 -10
69 -4 37 4 79 8 93 9 14 2 31 6 37 10 16 10 15 46 0 48 -7 0 -24 2 -38 3 -14
2 -38 5 -55 8 -21 5 -41 0 -70 -17z"/>
<path d="M17840 4460 c0 -5 7 -10 15 -10 8 0 15 5 15 10 0 6 -7 10 -15 10 -8
0 -15 -4 -15 -10z"/>
<path d="M14325 4408 c-22 -11 -48 -27 -57 -35 -13 -11 -29 -14 -61 -9 -31 5
-47 3 -54 -6 -5 -7 -10 -49 -11 -93 l-1 -80 90 -2 c49 -1 89 1 89 6 0 4 28 11
62 15 34 3 64 8 67 11 3 3 0 15 -7 25 -11 18 -9 20 15 21 27 0 27 1 6 9 -31
12 -29 20 12 57 19 18 35 37 35 42 0 15 -65 48 -106 54 -28 4 -51 -1 -79 -15z
m75 -118 c0 -5 -18 -10 -40 -10 -22 0 -40 5 -40 10 0 6 18 10 40 10 22 0 40
-4 40 -10z"/>
<path d="M12957 4392 c-7 -27 9 -50 24 -35 13 13 9 45 -7 50 -6 2 -14 -5 -17
-15z"/>
<path d="M14823 4393 c-75 -5 -85 -21 -52 -85 17 -32 24 -38 27 -25 3 15 13
18 60 16 75 -2 175 11 184 24 4 6 -2 16 -11 21 -83 49 -106 54 -208 49z"/>
<path d="M12757 4348 c-8 -5 -5 -8 10 -8 12 0 25 -4 28 -10 8 -13 102 -13 110
-1 9 16 -126 33 -148 19z"/>
<path d="M13384 4335 c-9 -23 7 -31 58 -30 32 1 44 5 46 18 3 13 -4 17 -31 17
-20 0 -42 3 -51 6 -10 4 -18 -1 -22 -11z"/>
<path d="M13403 4209 c-31 -11 -29 -29 2 -29 23 0 25 -4 25 -40 0 -35 3 -40
23 -40 12 0 28 -9 35 -20 7 -11 17 -20 22 -20 6 0 10 9 10 20 0 13 7 20 19 20
19 0 35 23 24 34 -4 3 -15 6 -25 6 -11 0 -18 7 -18 20 0 11 -5 20 -11 20 -7 0
-17 6 -23 14 -15 18 -56 26 -83 15z"/>
<path d="M14080 4167 c0 -9 -12 -11 -40 -9 -36 4 -40 2 -40 -18 0 -20 4 -22
40 -18 28 2 40 0 40 -9 0 -7 11 -13 25 -13 22 0 24 3 15 19 -5 11 -10 29 -10
40 0 12 -7 21 -15 21 -8 0 -15 -6 -15 -13z"/>
<path d="M22320 4169 c0 -5 5 -7 10 -4 6 3 10 8 10 11 0 2 -4 4 -10 4 -5 0
-10 -5 -10 -11z"/>
<path d="M13840 4135 c0 -11 11 -15 40 -15 29 0 40 4 40 15 0 11 -11 15 -40
15 -29 0 -40 -4 -40 -15z"/>
<path d="M16480 3568 c0 -16 5 -28 10 -28 13 0 13 20 0 40 -8 12 -10 9 -10
-12z"/>
<path d="M22939 3528 c-14 -26 6 -41 33 -27 24 13 23 35 -2 42 -14 3 -24 -1
-31 -15z"/>
<path d="M16374 3525 c-16 -13 -17 -16 -4 -25 23 -15 30 -12 30 15 0 29 0 29
-26 10z"/>
<path d="M16446 3523 c-31 -16 -27 -23 21 -43 41 -16 65 -7 61 22 -4 29 -46
40 -82 21z"/>
<path d="M16480 3450 c0 -5 4 -10 9 -10 6 0 13 5 16 10 3 6 -1 10 -9 10 -9 0
-16 -4 -16 -10z"/>
<path d="M16800 2511 c0 -12 5 -21 10 -21 6 0 10 6 10 14 0 8 -4 18 -10 21 -5
3 -10 -3 -10 -14z"/>
<path d="M16720 2433 c1 -44 2 -47 15 -29 16 21 18 36 9 60 -12 31 -24 15 -24
-31z"/>
<path d="M14560 220 c0 -22 5 -40 10 -40 6 0 10 18 10 40 0 22 -4 40 -10 40
-5 0 -10 -18 -10 -40z"/>
<path d="M24002 69 c5 -15 50 -29 118 -36 78 -7 19 20 -89 42 -25 5 -32 4 -29
-6z"/>
<path d="M24217 24 c-15 -16 -5 -24 28 -24 19 0 35 5 35 10 0 6 -6 10 -14 10
-8 0 -21 2 -28 5 -8 3 -17 2 -21 -1z"/>
</g>
</svg>
