<?xml version="1.0" standalone="no"?>
<!DOCTYPE svg PUBLIC "-//W3C//DTD SVG 20010904//EN"
 "http://www.w3.org/TR/2001/REC-SVG-20010904/DTD/svg10.dtd">
<svg version="1.0" xmlns="http://www.w3.org/2000/svg"
 width="480.000000pt" height="480.000000pt" viewBox="0 0 480.000000 480.000000"
 preserveAspectRatio="xMidYMid meet">

<g transform="translate(0.000000,480.000000) scale(0.100000,-0.100000)"
fill="#000000" stroke="none">
<path d="M0 2400 l0 -2400 2400 0 2400 0 0 2400 0 2400 -2400 0 -2400 0 0
-2400z m2450 807 c124 -188 282 -429 352 -535 l128 -194 183 279 c101 153 257
391 347 528 176 269 177 271 185 263 4 -4 8 -1154 5 -1500 0 -5 -52 -8 -115
-8 l-115 0 -2 404 -3 404 -240 -389 c-132 -214 -242 -389 -245 -389 -3 0 -113
175 -245 389 l-240 389 -3 -404 -2 -404 -120 0 -120 0 0 755 c0 597 3 755 13
755 6 0 113 -154 237 -343z m-430 198 l0 -115 -325 0 -325 0 0 -195 0 -195
280 0 280 0 0 -115 0 -115 -280 0 -280 0 0 -315 0 -315 -115 0 -115 0 0 740 0
740 440 0 440 0 0 -115z m-745 -1590 c0 -5 -24 -11 -52 -13 l-53 -3 0 -35 c0
-34 0 -34 45 -34 33 0 45 -4 45 -15 0 -11 -12 -15 -44 -15 l-45 0 -3 -47 c-5
-84 -23 -47 -26 54 -1 53 0 103 2 110 7 17 131 14 131 -2z m155 -100 c0 -70
-4 -115 -10 -115 -10 0 -11 11 -11 145 0 92 -1 85 11 85 6 0 10 -45 10 -115z
m300 32 c3 48 10 78 18 81 9 3 12 -24 12 -115 l-1 -118 -26 30 c-64 73 -122
135 -127 135 -3 0 -6 -36 -6 -80 0 -47 -4 -80 -10 -80 -6 0 -10 45 -10 115 l0
116 73 -80 72 -81 5 77z m280 -80 c4 -5 25 20 46 55 68 115 64 115 64 -10 0
-125 -17 -156 -22 -39 l-3 72 -39 -69 -39 -68 -21 35 c-12 20 -30 51 -41 69
l-20 33 -3 -72 c-5 -119 -22 -84 -22 44 l0 118 46 -80 c26 -44 50 -84 54 -88z
m390 148 c0 -11 -12 -15 -50 -15 l-50 0 0 -35 c0 -35 0 -35 45 -35 25 0 45 -4
45 -10 0 -5 -20 -10 -45 -10 l-45 0 0 -40 0 -40 50 0 c38 0 50 -4 50 -15 0
-13 -11 -15 -62 -13 l-63 3 -3 113 -3 112 66 0 c51 0 65 -3 65 -15z m168 -97
c-4 -140 -22 -148 -26 -11 -3 101 0 123 18 123 7 0 10 -38 8 -112z m253 102
c10 -6 19 -17 19 -25 0 -18 -12 -19 -27 -4 -6 6 -23 9 -39 7 -21 -2 -30 -9
-32 -25 -3 -19 6 -27 51 -47 63 -27 78 -53 53 -91 -27 -40 -85 -45 -131 -11
-25 18 -11 35 15 18 44 -27 111 -4 97 33 -4 8 -23 21 -44 30 -74 31 -89 61
-51 102 23 25 57 29 89 13z m309 -5 c0 -10 -10 -15 -30 -15 l-29 0 -3 -97 c-2
-66 -7 -98 -15 -101 -10 -3 -13 21 -13 97 l0 101 -29 0 c-30 0 -46 12 -34 24
3 3 39 6 80 6 58 0 73 -3 73 -15z m260 0 c0 -11 -12 -15 -50 -15 l-50 0 0 -35
c0 -35 0 -35 45 -35 25 0 45 -4 45 -10 0 -5 -20 -10 -45 -10 l-45 0 0 -39 0
-40 53 -3 c73 -4 61 -23 -15 -23 l-63 0 -3 99 c-1 55 0 106 2 113 8 20 126 18
126 -2z m254 -6 c32 -26 36 -77 6 -104 -19 -18 -19 -18 10 -55 33 -42 36 -50
17 -50 -7 0 -27 20 -45 45 -20 28 -39 45 -52 45 -17 0 -20 -7 -20 -46 0 -32
-4 -44 -12 -42 -13 5 -24 187 -14 215 8 21 79 16 110 -8z m-2670 -431 l19 -31
28 34 c36 43 37 31 3 -27 -14 -24 -24 -50 -21 -58 3 -7 1 -19 -4 -27 -6 -10
-9 -4 -9 19 0 18 -11 50 -25 72 -27 42 -29 50 -17 50 4 0 16 -14 26 -32z m249
1 c37 -46 3 -119 -57 -119 -70 0 -101 76 -50 127 20 20 31 24 57 19 18 -3 40
-16 50 -27z m97 -18 c0 -65 7 -81 35 -81 31 0 38 13 46 80 l6 55 2 -62 c1 -44
-3 -66 -15 -77 -22 -23 -60 -20 -78 6 -18 25 -22 128 -6 128 6 0 10 -22 10
-49z m231 39 c23 -13 26 -68 4 -76 -12 -5 -12 -10 5 -32 31 -39 12 -41 -20 -2
-31 37 -45 35 -53 -10 -2 -14 -5 10 -6 53 -1 76 -1 77 25 77 14 0 34 -5 45
-10z m269 0 c0 -5 -16 -10 -35 -10 -31 0 -35 -3 -35 -25 0 -21 5 -25 31 -25
17 0 28 -4 24 -10 -3 -5 -17 -10 -31 -10 -20 0 -24 -5 -24 -30 0 -16 -4 -30
-10 -30 -6 0 -10 32 -10 75 l0 75 45 0 c25 0 45 -4 45 -10z m75 -87 c3 -12 14
-27 24 -33 32 -16 51 12 51 76 0 30 5 54 10 54 14 0 12 -90 -3 -120 -8 -16
-23 -26 -40 -28 -46 -6 -57 12 -55 87 1 42 3 51 5 26 2 -22 6 -50 8 -62z m245
87 c0 -5 -9 -10 -20 -10 -18 0 -20 -7 -20 -65 0 -37 -4 -65 -10 -65 -5 0 -9 3
-9 8 1 4 1 33 0 65 -1 50 -3 57 -21 57 -11 0 -20 5 -20 10 0 6 23 10 50 10 28
0 50 -4 50 -10z m80 -50 c0 -65 17 -88 52 -69 14 8 18 22 18 69 0 33 4 60 10
60 6 0 10 -26 10 -57 0 -62 -18 -93 -53 -93 -39 0 -57 28 -57 92 0 32 4 58 10
58 6 0 10 -27 10 -60z m231 50 c21 -12 26 -59 7 -78 -9 -9 -7 -16 7 -32 10
-11 15 -23 11 -27 -3 -4 -19 8 -34 27 -31 37 -52 35 -44 -5 2 -15 0 -25 -7
-25 -7 0 -11 26 -11 75 0 74 0 75 26 75 14 0 34 -5 45 -10z m179 0 c0 -5 -16
-10 -35 -10 -31 0 -35 -3 -35 -25 0 -21 5 -25 31 -25 16 0 28 -4 25 -9 -3 -4
-17 -6 -31 -3 -23 4 -25 1 -25 -28 0 -30 2 -32 30 -28 17 3 33 1 36 -4 3 -4
-15 -8 -40 -8 l-46 0 0 75 0 75 45 0 c25 0 45 -4 45 -10z m484 -139 c-4 -3 -9
0 -11 7 -3 7 -22 12 -48 12 -26 0 -45 -5 -48 -12 -2 -7 -7 -10 -11 -7 -3 3 8
39 26 79 l32 73 34 -73 c18 -40 30 -75 26 -79z m141 139 c-3 -5 -15 -10 -26
-10 -17 0 -19 -8 -21 -67 l-2 -68 -3 68 c-4 64 -5 67 -28 67 -14 0 -25 5 -25
10 0 6 25 10 56 10 34 0 53 -4 49 -10z m145 0 c0 -5 -9 -10 -20 -10 -18 0 -20
-7 -20 -65 0 -37 -4 -65 -10 -65 -6 0 -10 28 -10 65 0 58 -2 65 -20 65 -11 0
-20 5 -20 10 0 6 23 10 50 10 28 0 50 -4 50 -10z m145 0 c-3 -5 -19 -10 -36
-10 -24 0 -29 -4 -29 -25 0 -21 5 -25 31 -25 18 0 28 -4 24 -10 -4 -6 -10 -8
-15 -5 -17 10 -40 -8 -40 -32 0 -22 3 -25 30 -21 17 3 33 1 36 -4 3 -4 -15 -8
-40 -8 l-46 0 0 75 0 75 46 0 c27 0 43 -4 39 -10z m151 -15 c15 -23 15 -27 -1
-51 -16 -24 -16 -27 1 -45 9 -10 14 -22 10 -26 -4 -4 -18 7 -32 25 -32 40 -44
41 -44 2 0 -16 -4 -30 -10 -30 -6 0 -10 32 -10 75 l0 75 35 0 c26 0 39 -6 51
-25z m150 10 c18 -14 17 -15 -16 -12 -42 3 -56 -27 -18 -38 25 -8 58 -34 58
-46 0 -34 -77 -52 -100 -24 -14 16 -6 18 25 6 21 -9 55 3 55 19 0 6 -17 18
-37 27 -42 20 -54 50 -27 70 23 17 36 16 60 -2z m-1020 -51 c14 -24 28 -44 30
-44 2 0 18 23 35 50 17 28 33 50 35 50 2 0 4 -31 4 -70 0 -40 -4 -70 -10 -70
-5 0 -10 21 -10 48 l0 47 -23 -40 c-12 -22 -27 -40 -32 -39 -6 1 -20 19 -32
40 l-23 39 0 -47 c0 -27 -4 -48 -10 -48 -6 0 -10 30 -10 71 0 79 6 81 46 13z"/>
<path d="M3560 1755 c0 -43 1 -45 28 -45 16 0 37 9 47 20 15 17 16 24 7 45 -9
20 -19 25 -47 25 -35 0 -35 0 -35 -45z"/>
<path d="M1127 1372 c-36 -39 -13 -94 38 -94 34 -1 55 19 55 52 0 52 -60 79
-93 42z"/>
<path d="M1490 1360 c0 -25 4 -30 24 -30 33 0 53 25 36 45 -7 8 -23 15 -36 15
-20 0 -24 -5 -24 -30z"/>
<path d="M2400 1360 c0 -23 5 -30 19 -30 28 0 47 26 31 45 -7 8 -21 15 -31 15
-14 0 -19 -7 -19 -30z"/>
<path d="M3040 1341 c-15 -37 -11 -44 23 -39 l25 3 -17 34 -18 33 -13 -31z"/>
<path d="M3630 1360 c0 -23 5 -30 19 -30 10 0 24 6 30 14 17 20 3 46 -25 46
-20 0 -24 -5 -24 -30z"/>
</g>
</svg>
